<?xml version="1.0" encoding="UTF-8" standalone="no"?>
<!DOCTYPE svg PUBLIC "-//W3C//DTD SVG 1.1//EN" "http://www.w3.org/Graphics/SVG/1.1/DTD/svg11.dtd">
<!-- Created with Vectornator (http://vectornator.io/) -->
<svg height="100%" stroke-miterlimit="10" style="fill-rule:nonzero;clip-rule:evenodd;stroke-linecap:round;stroke-linejoin:round;" version="1.1" viewBox="0 0 1190.7 841.995" width="100%" xml:space="preserve" xmlns="http://www.w3.org/2000/svg" xmlns:vectornator="http://vectornator.io" xmlns:xlink="http://www.w3.org/1999/xlink">
<defs>
<path d="M463.249 480.098L463.859 480.098L463.859 480.192L463.249 480.192L463.249 480.098Z" id="Fill"/>
<path d="M578.899 107.657C577.73 107.824 576.393 108.493 574.89 109.662C573.386 110.832 571.799 112.586 570.128 114.925C568.457 117.264 567.371 120.522 566.87 124.698C566.369 128.875 566.536 132.968 567.371 136.978C567.789 138.983 568.207 140.988 568.624 142.993C567.873 142.993 567.121 142.993 566.369 142.993C564.865 142.993 563.362 143.494 561.858 144.496C560.354 145.499 559.352 147.169 558.851 149.508C558.35 151.847 558.266 154.437 558.6 157.277C558.934 160.117 560.271 164.712 562.61 171.06C564.949 177.409 567.037 182.338 568.875 185.846C570.713 189.355 572.801 192.779 575.14 196.121C577.479 199.462 578.064 202.971 576.894 206.646C575.725 210.322 575.224 214.081 575.391 217.924C575.558 221.766 575.892 224.523 576.393 226.193C576.894 227.864 577.813 230.12 579.15 232.96C580.486 235.8 582.575 239.308 585.415 243.485C588.255 247.662 590.427 253.259 591.931 260.276C593.434 267.293 596.191 273.808 600.201 279.823C604.21 285.837 606.633 291.017 607.468 295.36C608.304 299.704 610.141 305.051 612.982 311.399C615.822 317.748 617.158 321.59 616.991 322.927C616.824 324.264 615.571 327.772 613.232 333.452C610.893 339.133 608.972 343.393 607.468 346.233C605.965 349.074 605.046 350.494 604.712 350.494C604.545 350.494 604.377 350.494 604.21 350.494C604.461 344.479 604.712 338.465 604.962 332.45C605.463 320.421 604.628 311.65 602.456 306.137C600.284 300.623 597.695 296.279 594.687 293.105C591.68 289.931 589.258 287.842 587.42 286.84C585.582 285.837 583.911 285.253 582.408 285.086C580.904 284.919 579.985 283.916 579.651 282.078C579.317 280.241 578.732 278.904 577.897 278.069C577.061 277.233 575.641 276.565 573.637 276.064C571.632 275.563 569.209 275.396 566.369 275.563C564.949 275.646 563.529 275.73 562.109 275.813C562.192 275.229 562.276 274.644 562.359 274.059C562.526 272.89 563.111 271.553 564.114 270.049C565.116 268.546 566.954 266.374 569.627 263.534C572.3 260.693 573.386 258.939 572.885 258.271C572.384 257.603 571.047 257.269 568.875 257.269C566.703 257.269 564.281 257.603 561.608 258.271C558.934 258.939 556.094 260.109 553.087 261.779C550.08 263.45 547.824 265.121 546.321 266.792C545.569 267.627 544.817 268.462 544.065 269.298C543.982 269.047 543.898 268.796 543.815 268.546C543.647 268.045 543.982 267.209 544.817 266.04C545.652 264.87 546.07 263.534 546.07 262.03C546.07 260.526 545.819 259.691 545.318 259.524C544.817 259.357 543.063 259.691 540.055 260.526C537.048 261.362 534.793 262.281 533.289 263.283C531.785 264.285 530.616 265.371 529.781 266.541C528.945 267.71 527.943 268.128 526.773 267.794C525.604 267.46 525.103 266.875 525.27 266.04C525.353 265.622 525.437 265.204 525.52 264.787C525.186 264.954 524.852 265.121 524.518 265.288C523.85 265.622 522.346 267.126 520.007 269.799C517.668 272.472 515.663 275.646 513.993 279.322C512.322 282.997 510.985 287.174 509.983 291.852C508.98 296.53 508.479 300.456 508.479 303.63C508.479 306.805 508.646 308.559 508.98 308.893C509.148 309.06 509.315 309.227 509.482 309.394C509.565 309.144 509.649 308.893 509.732 308.643C509.899 308.141 509.983 306.387 509.983 303.38C509.983 300.373 510.568 296.363 511.737 291.351C512.907 286.339 514.327 282.162 515.997 278.821C517.668 275.479 519.339 272.973 521.009 271.302C522.68 269.632 523.85 268.796 524.518 268.796C525.186 268.796 526.189 269.298 527.525 270.3C528.862 271.302 530.031 272.89 531.034 275.061C532.036 277.233 531.618 279.572 529.781 282.078C527.943 284.584 526.272 287.759 524.769 291.601C523.265 295.444 522.095 299.287 521.26 303.129C520.425 306.972 519.924 310.313 519.756 313.153C519.673 314.574 519.589 315.994 519.506 317.414C519.673 317.414 519.84 317.414 520.007 317.414C520.341 317.414 520.926 314.991 521.761 310.146C522.597 305.301 523.933 300.707 525.771 296.363C527.609 292.019 530.95 286.84 535.795 280.825C540.64 274.811 543.898 271.72 545.569 271.553C547.239 271.386 548.994 272.221 550.831 274.059C551.75 274.978 552.669 275.897 553.588 276.816C553.588 276.314 553.588 275.813 553.588 275.312C553.588 274.811 553.588 274.31 553.588 273.808C554.256 273.808 554.925 273.808 555.593 273.808C556.93 273.808 558.016 274.059 558.851 274.56C559.686 275.061 560.271 276.649 560.605 279.322C560.939 281.995 560.856 284.167 560.354 285.837C559.853 287.508 559.185 288.761 558.35 289.597C557.514 290.432 557.18 291.434 557.347 292.604C557.514 293.773 558.099 294.358 559.101 294.358C560.104 294.358 561.357 293.69 562.861 292.353C563.612 291.685 564.364 291.017 565.116 290.348C564.448 290.432 563.779 290.515 563.111 290.599C562.443 290.683 561.775 290.766 561.106 290.85C561.44 290.265 561.775 289.68 562.109 289.095C562.777 287.926 563.028 285.754 562.861 282.58C562.693 279.405 563.779 277.651 566.118 277.317C568.457 276.983 570.546 276.983 572.384 277.317C574.221 277.651 575.558 278.236 576.393 279.071C577.229 279.907 577.646 282.914 577.646 288.093C577.646 293.272 577.813 296.279 578.147 297.115C578.482 297.95 579.317 298.952 580.653 300.122C581.99 301.291 583.076 301.96 583.911 302.127C584.747 302.294 585.248 303.046 585.415 304.382C585.582 305.719 586.083 307.055 586.919 308.392C587.754 309.729 589.258 311.566 591.43 313.905C593.601 316.244 595.439 317.915 596.943 318.917C598.446 319.92 599.699 322.092 600.702 325.433C601.704 328.775 602.206 333.87 602.206 340.72C602.206 347.57 602.373 351.747 602.707 353.25C603.041 354.754 602.206 357.761 600.201 362.272C598.196 366.783 597.11 369.957 596.943 371.795C596.776 373.633 596.525 374.552 596.191 374.552C596.024 374.552 595.857 374.552 595.69 374.552C595.69 373.8 595.69 373.048 595.69 372.296C595.69 370.793 595.356 369.205 594.687 367.535C594.019 365.864 593.685 362.773 593.685 358.262C593.685 353.751 593.351 350.995 592.683 349.992C592.014 348.99 591.179 348.238 590.176 347.737C589.174 347.236 588.422 347.069 587.921 347.236C587.67 347.319 587.42 347.403 587.169 347.486C587.42 346.818 587.67 346.15 587.921 345.482C588.422 344.145 588.506 342.808 588.172 341.472C587.838 340.135 587.921 339.3 588.422 338.966C588.923 338.632 589.759 337.212 590.928 334.705C592.098 332.199 593.769 329.944 595.94 327.939C598.112 325.934 599.198 324.681 599.198 324.18C599.198 323.679 598.697 323.178 597.695 322.676C596.692 322.175 594.938 321.758 592.432 321.423C589.926 321.089 587.253 321.006 584.413 321.173C581.572 321.34 578.732 321.925 575.892 322.927C573.052 323.929 571.214 324.765 570.379 325.433C569.543 326.101 568.624 326.018 567.622 325.182C566.62 324.347 565.701 323.846 564.865 323.679C564.03 323.512 562.861 323.679 561.357 324.18C559.853 324.681 558.35 325.934 556.846 327.939C555.342 329.944 554.34 330.779 553.839 330.445C553.338 330.111 552.502 330.028 551.333 330.195C550.163 330.362 548.242 332.032 545.569 335.207C542.896 338.381 540.557 342.14 538.552 346.484C536.547 350.828 535.127 354.587 534.292 357.761C533.874 359.348 533.456 360.935 533.039 362.523C533.289 362.439 533.54 362.356 533.79 362.272C534.292 362.105 535.545 359.432 537.549 354.253C539.554 349.074 541.726 344.646 544.065 340.971C546.404 337.295 547.991 335.04 548.827 334.204C549.662 333.369 550.748 332.701 552.085 332.199C552.753 331.949 553.421 331.698 554.089 331.448C553.672 332.367 553.254 333.285 552.836 334.204C552.001 336.042 551.583 337.212 551.583 337.713C551.583 338.214 551.834 338.548 552.335 338.715C552.836 338.882 553.839 337.462 555.342 334.455C556.846 331.448 558.266 329.359 559.603 328.19C560.939 327.02 562.192 326.352 563.362 326.185C564.531 326.018 565.367 326.101 565.868 326.436C566.369 326.77 566.87 327.271 567.371 327.939C567.873 328.607 568.207 329.61 568.374 330.946C568.541 332.283 569.877 333.452 572.384 334.455C574.89 335.457 576.56 336.376 577.396 337.212C578.231 338.047 578.649 338.632 578.649 338.966C578.649 339.3 577.396 339.968 574.89 340.971C572.384 341.973 570.128 343.477 568.123 345.482C566.118 347.486 564.782 349.241 564.114 350.744C563.779 351.496 563.445 352.248 563.111 353C564.281 351.83 565.45 350.661 566.62 349.491C568.959 347.152 571.131 345.314 573.135 343.978C575.14 342.641 577.312 341.806 579.651 341.472C581.99 341.138 583.661 341.221 584.663 341.722C585.666 342.224 585.916 343.059 585.415 344.228C584.914 345.398 584.078 346.317 582.909 346.985C581.739 347.653 581.155 348.322 581.155 348.99C581.155 349.324 581.155 349.658 581.155 349.992C582.241 349.909 583.327 349.825 584.413 349.742C586.584 349.575 588.255 349.825 589.425 350.494C590.594 351.162 591.262 354.253 591.43 359.766C591.597 365.279 592.683 373.633 594.687 384.827C596.692 396.02 597.444 402.369 596.943 403.873C596.442 405.376 595.523 406.88 594.186 408.383C592.85 409.887 591.513 410.973 590.176 411.641C588.84 412.31 587.169 412.727 585.164 412.894C584.162 412.978 583.16 413.061 582.157 413.145C582.658 413.396 583.16 413.646 583.661 413.897C584.663 414.398 586 414.481 587.67 414.147C589.341 413.813 591.346 412.811 593.685 411.14C594.854 410.305 596.024 409.469 597.193 408.634C596.776 410.221 596.358 411.808 595.94 413.396C595.105 416.57 594.186 418.491 593.184 419.159C592.181 419.828 590.427 420.496 587.921 421.164C586.668 421.498 585.415 421.833 584.162 422.167C585.749 422 587.336 421.833 588.923 421.665C592.098 421.331 594.186 420.747 595.189 419.911C596.191 419.076 596.859 418.073 597.193 416.904C597.528 415.734 597.862 415.15 598.196 415.15C598.53 415.15 598.948 419.828 599.449 429.184C599.699 433.862 599.95 438.54 600.201 443.218C600.368 443.134 600.535 443.05 600.702 442.967C601.036 442.8 601.287 441.881 601.454 440.21C601.621 438.54 601.704 436.034 601.704 432.692C601.704 431.021 601.704 429.351 601.704 427.68C602.623 429.935 603.542 432.191 604.461 434.446C606.299 438.957 608.888 443.468 612.23 447.979C615.571 452.49 617.66 454.996 618.495 455.497C618.913 455.748 619.33 455.998 619.748 456.249C618.328 454.328 616.908 452.406 615.488 450.485C612.647 446.642 610.058 442.132 607.719 436.952C605.38 431.773 603.793 427.095 602.957 422.919C602.122 418.742 601.788 413.646 601.955 407.632C602.122 401.617 602.79 395.686 603.96 389.839C605.129 383.991 605.798 378.311 605.965 372.797C606.132 367.284 606.466 363.191 606.967 360.518C607.468 357.845 609.64 352.164 613.483 343.477C617.325 334.789 620.583 326.101 623.256 317.414C625.929 308.726 627.183 303.881 627.015 302.879C626.848 301.876 627.433 298.702 628.77 293.356C630.106 288.009 631.192 281.243 632.028 273.057C632.863 264.87 633.364 255.681 633.531 245.49C633.698 235.299 634.534 227.864 636.037 223.186C637.541 218.508 639.128 215.083 640.799 212.911C641.634 211.825 642.469 210.739 643.305 209.654C642.804 211.241 642.302 212.828 641.801 214.415C640.799 217.589 640.214 221.014 640.047 224.69C639.88 228.365 640.13 231.289 640.799 233.461C641.467 235.633 642.302 237.304 643.305 238.473C644.307 239.643 645.477 240.561 646.813 241.23C648.15 241.898 650.322 242.316 653.329 242.483C656.336 242.65 659.176 242.483 661.85 241.982C664.523 241.48 666.36 240.729 667.363 239.726C668.365 238.724 669.117 238.39 669.618 238.724C670.12 239.058 670.036 251.839 669.368 277.066C668.699 302.294 669.034 318.416 670.37 325.433C671.707 332.45 672.709 336.293 673.377 336.961C673.712 337.295 674.046 337.629 674.38 337.963C673.795 333.703 673.21 329.443 672.626 325.182C671.456 316.662 671.038 305.886 671.373 292.854C671.707 279.823 672.124 270.551 672.626 265.037C673.127 259.524 673.294 252.423 673.127 243.736C672.96 235.048 672.542 228.449 671.874 223.938C671.205 219.427 670.036 215.083 668.365 210.907C666.695 206.73 665.191 204.14 663.854 203.138C662.518 202.135 660.597 201.216 658.09 200.381C655.584 199.546 653.496 199.379 651.825 199.88C650.155 200.381 648.651 201.3 647.314 202.637C645.978 203.973 645.143 204.641 644.808 204.641C644.474 204.641 644.057 204.14 643.555 203.138C643.054 202.135 641.801 197.457 639.796 189.104C637.791 180.75 636.789 175.07 636.789 172.063C636.789 169.055 636.037 165.631 634.534 161.788C633.03 157.945 631.944 154.437 631.276 151.263C630.607 148.088 630.273 144.58 630.273 140.737C630.273 136.895 630.942 133.052 632.278 129.209C633.615 125.367 634.701 122.944 635.536 121.942C636.371 120.939 637.457 120.104 638.794 119.436C640.13 118.767 641.3 118.433 642.302 118.433C643.305 118.433 644.224 118.851 645.059 119.686C645.894 120.522 647.147 123.111 648.818 127.455C650.489 131.799 652.159 137.813 653.83 145.499C655.501 153.184 656.503 157.11 656.837 157.277C657.172 157.444 658.007 160.034 659.344 165.046C660.68 170.058 662.518 175.404 664.857 181.085C667.196 186.765 668.282 189.772 668.115 190.106C667.948 190.44 668.699 192.362 670.37 195.87C672.041 199.379 673.544 202.302 674.881 204.641C676.218 206.98 677.053 208.15 677.387 208.15C677.554 208.15 677.721 208.15 677.888 208.15C677.805 208.317 677.721 208.484 677.638 208.651C677.471 208.985 678.139 211.157 679.643 215.167C681.146 219.177 682.399 224.189 683.402 230.203C684.404 236.218 685.908 241.982 687.912 247.495C689.917 253.008 690.836 256.015 690.669 256.517C690.502 257.018 692.507 262.197 696.684 272.054C700.86 281.911 703.032 288.928 703.199 293.105C703.366 297.282 703.199 301.96 702.698 307.139C702.448 309.729 702.197 312.318 701.946 314.908C702.197 314.908 702.448 314.908 702.698 314.908C703.199 314.908 704.035 310.814 705.204 302.628C706.374 294.442 705.956 287.425 703.951 281.577C701.946 275.73 700.276 271.637 698.939 269.298C697.603 266.959 696.015 263.45 694.178 258.772C692.34 254.094 690.753 249.5 689.416 244.989C688.08 240.478 686.576 234.129 684.905 225.943C683.235 217.756 680.227 209.403 675.883 200.882C671.54 192.362 669.201 187.183 668.867 185.345C668.532 183.507 667.864 181.586 666.862 179.581C665.859 177.576 664.189 172.648 661.85 164.795C659.511 156.943 658.174 152.933 657.84 152.766C657.506 152.599 656.754 149.592 655.584 143.744C654.415 137.897 652.828 132.467 650.823 127.455C648.818 122.443 647.147 119.352 645.811 118.183C644.474 117.013 642.637 116.763 640.298 117.431C637.959 118.099 636.121 119.102 634.784 120.438C633.448 121.775 632.195 123.947 631.025 126.954C629.856 129.961 629.187 134.472 629.02 140.487C628.853 146.501 629.271 151.513 630.273 155.523C631.276 159.533 632.278 162.54 633.281 164.545C634.283 166.549 634.784 169.39 634.784 173.065C634.784 176.741 635.118 179.832 635.787 182.338C636.455 184.844 636.622 186.264 636.288 186.598C636.121 186.765 635.954 186.932 635.787 187.099C633.114 183.841 630.44 180.583 627.767 177.325C622.421 170.81 617.91 165.714 614.235 162.039C610.559 158.363 605.714 150.01 599.699 136.978C593.685 123.947 589.759 116.094 587.921 113.421C586.083 110.748 584.413 109.077 582.909 108.409C581.405 107.741 580.069 107.49 578.899 107.657ZM580.653 109.662C581.99 109.829 583.076 110.581 583.911 111.918C584.747 113.254 585.415 114.006 585.916 114.173C586.417 114.34 590.093 121.691 596.943 136.226C603.793 150.761 608.721 159.449 611.729 162.289C614.736 165.129 619.414 170.476 625.762 178.328C632.111 186.18 635.703 190.357 636.538 190.858C637.374 191.359 637.791 192.028 637.791 192.863C637.791 193.698 637.959 194.2 638.293 194.367C638.627 194.534 638.794 195.035 638.794 195.87C638.794 196.706 639.462 198.794 640.799 202.135C642.135 205.477 641.634 208.568 639.295 211.408C636.956 214.248 635.202 217.255 634.032 220.43C632.863 223.604 632.028 226.945 631.526 230.454C631.025 233.962 630.775 237.972 630.775 242.483C630.775 244.738 630.775 246.994 630.775 249.249C630.273 248.831 629.772 248.414 629.271 247.996C628.268 247.161 627.099 245.323 625.762 242.483C624.426 239.643 622.839 235.299 621.001 229.451C619.163 223.604 616.406 218.675 612.731 214.666C609.055 210.656 605.965 206.73 603.459 202.887C600.953 199.045 599.699 196.789 599.699 196.121C599.699 195.453 599.365 194.784 598.697 194.116C598.029 193.448 596.776 190.775 594.938 186.097C593.1 181.419 591.931 177.91 591.43 175.571C590.928 173.232 589.425 170.977 586.919 168.805C584.413 166.633 581.405 162.707 577.897 157.026C574.388 151.346 572.049 146.668 570.88 142.993C569.71 139.317 568.959 135.057 568.624 130.212C568.29 125.367 568.541 121.858 569.376 119.686C570.212 117.514 571.966 115.259 574.639 112.92C577.312 110.581 579.317 109.495 580.653 109.662ZM571.381 125.951C571.214 127.288 571.381 128.792 571.882 130.462C572.133 131.298 572.384 132.133 572.634 132.968C572.634 131.465 572.634 129.961 572.634 128.457C572.634 126.954 572.634 125.45 572.634 123.947C572.467 123.947 572.3 123.947 572.133 123.947C571.799 123.947 571.548 124.615 571.381 125.951ZM636.538 125.2C636.037 125.701 635.62 126.703 635.285 128.207C635.118 128.959 634.951 129.71 634.784 130.462C635.202 129.46 635.62 128.457 636.037 127.455C636.455 126.453 636.873 125.45 637.29 124.448C637.04 124.698 636.789 124.949 636.538 125.2ZM572.384 151.764C574.89 156.943 576.978 160.702 578.649 163.041C580.319 165.38 582.324 167.635 584.663 169.807C587.002 171.979 588.84 175.404 590.176 180.082C591.513 184.76 593.267 189.355 595.439 193.865C597.611 198.376 599.95 202.47 602.456 206.145C604.962 209.821 607.886 213.413 611.227 216.921C614.569 220.43 616.657 223.938 617.492 227.446C618.328 230.955 619.831 235.549 622.003 241.23C624.175 246.91 625.929 250.836 627.266 253.008C628.603 255.18 629.689 256.517 630.524 257.018C631.359 257.519 631.276 262.114 630.273 270.801C629.772 275.145 629.271 279.489 628.77 283.833C628.018 283.248 627.266 282.663 626.514 282.078C625.011 280.909 623.089 278.319 620.75 274.31C618.411 270.3 617.075 268.295 616.741 268.295C616.406 268.295 614.986 265.371 612.48 259.524C609.974 253.677 608.387 249.416 607.719 246.743C607.051 244.07 605.63 241.731 603.459 239.726C601.287 237.721 599.031 235.048 596.692 231.707C594.353 228.365 591.68 223.687 588.673 217.673C585.666 211.658 583.995 207.732 583.661 205.894C583.327 204.057 581.238 200.548 577.396 195.369C573.553 190.19 570.462 185.261 568.123 180.583C565.784 175.905 563.946 171.562 562.61 167.552C561.273 163.542 560.522 159.7 560.354 156.024C560.187 152.348 560.354 149.842 560.856 148.506C561.357 147.169 562.777 146.083 565.116 145.248C567.455 144.413 569.877 146.585 572.384 151.764ZM563.362 154.771C563.612 155.69 563.863 156.609 564.114 157.528C564.114 156.609 564.114 155.69 564.114 154.771C564.114 153.852 564.114 152.933 564.114 152.014C563.863 152.014 563.612 152.014 563.362 152.014C563.111 152.014 562.861 152.014 562.61 152.014C562.861 152.933 563.111 153.852 563.362 154.771ZM654.833 201.384C656.169 201.551 657.756 202.135 659.594 203.138C661.432 204.14 663.019 205.811 664.356 208.15C665.692 210.489 666.945 214.749 668.115 220.931C669.284 227.112 669.869 231.456 669.869 233.962C669.869 236.468 669.535 237.888 668.867 238.223C668.198 238.557 665.776 239.058 661.599 239.726C657.422 240.394 654.248 240.645 652.076 240.478C649.904 240.311 647.816 239.392 645.811 237.721C643.806 236.051 642.553 233.545 642.052 230.203C641.551 226.862 641.551 223.353 642.052 219.678C642.553 216.002 643.388 212.828 644.558 210.155C645.727 207.482 646.646 205.727 647.314 204.892C647.983 204.057 649.069 203.221 650.572 202.386C652.076 201.551 653.496 201.216 654.833 201.384ZM579.902 215.167C579.818 216.169 579.735 217.172 579.651 218.174C579.818 218.091 579.985 218.007 580.152 217.924C580.486 217.756 580.57 216.754 580.403 214.916C580.319 213.997 580.236 213.078 580.152 212.16C580.069 213.162 579.985 214.164 579.902 215.167ZM636.789 240.478C636.789 240.896 636.789 241.313 636.789 241.731C637.207 241.647 637.624 241.564 638.042 241.48C638.46 241.397 638.877 241.313 639.295 241.23C639.128 240.896 638.961 240.561 638.794 240.227C638.46 239.559 638.042 239.225 637.541 239.225C637.29 239.225 637.04 239.225 636.789 239.225C636.789 239.643 636.789 240.06 636.789 240.478ZM658.341 257.269C658.341 257.436 658.341 257.603 658.341 257.77C658.592 257.686 658.842 257.603 659.093 257.519C659.344 257.436 659.594 257.352 659.845 257.269C659.594 257.185 659.344 257.101 659.093 257.018C658.842 256.934 658.592 256.851 658.341 256.767C658.341 256.934 658.341 257.101 658.341 257.269ZM569.627 258.772C569.543 259.19 569.46 259.607 569.376 260.025C569.209 260.861 568.541 261.779 567.371 262.782C566.202 263.784 564.782 265.622 563.111 268.295C561.44 270.968 559.603 272.221 557.598 272.054C555.593 271.887 554.256 271.971 553.588 272.305C552.92 272.639 552.252 272.388 551.583 271.553C550.915 270.718 549.996 270.133 548.827 269.799C548.242 269.632 547.657 269.465 547.072 269.298C547.407 268.796 547.741 268.295 548.075 267.794C548.743 266.792 550.08 265.622 552.085 264.285C554.089 262.949 556.261 261.863 558.6 261.028C560.939 260.192 563.362 259.607 565.868 259.273C567.121 259.106 568.374 258.939 569.627 258.772ZM658.842 262.03C658.174 262.197 657.756 262.531 657.589 263.032C657.506 263.283 657.422 263.534 657.339 263.784C658.007 263.617 658.675 263.45 659.344 263.283C660.68 262.949 661.348 262.615 661.348 262.281C661.348 262.114 661.348 261.946 661.348 261.779C661.098 261.779 660.847 261.779 660.597 261.779C660.095 261.779 659.511 261.863 658.842 262.03ZM657.339 267.794C657.339 267.961 657.339 268.128 657.339 268.295C657.589 268.212 657.84 268.128 658.09 268.045C658.341 267.961 658.592 267.877 658.842 267.794C658.592 267.71 658.341 267.627 658.09 267.543C657.84 267.46 657.589 267.376 657.339 267.293C657.339 267.46 657.339 267.627 657.339 267.794ZM698.187 290.85C698.271 292.687 698.354 294.525 698.438 296.363C698.605 294.859 698.772 293.356 698.939 291.852C699.273 288.845 699.19 287.007 698.689 286.339C698.438 286.005 698.187 285.67 697.937 285.336C698.02 287.174 698.104 289.012 698.187 290.85ZM504.971 310.898C504.971 315.91 505.138 319.252 505.472 320.922C505.806 322.593 506.391 323.846 507.226 324.681C507.644 325.099 508.062 325.517 508.479 325.934C508.229 323.261 507.978 320.588 507.727 317.915C507.226 312.569 506.641 308.81 505.973 306.638C505.639 305.552 505.305 304.466 504.971 303.38C504.971 305.886 504.971 308.392 504.971 310.898ZM511.486 324.681C510.818 326.185 510.484 328.357 510.484 331.197C510.484 334.037 510.651 336.543 510.985 338.715C511.319 340.887 511.821 342.14 512.489 342.474C512.823 342.641 513.157 342.808 513.491 342.975C513.575 340.386 513.658 337.796 513.742 335.207C513.909 330.028 513.742 326.603 513.241 324.932C512.99 324.097 512.74 323.261 512.489 322.426C512.155 323.178 511.821 323.929 511.486 324.681ZM699.44 324.932C698.772 326.603 697.686 331.531 696.182 339.718C694.679 347.904 693.76 352.081 693.426 352.248C693.092 352.415 692.173 357.427 690.669 367.284C689.166 377.141 688.163 387.834 687.662 399.362C687.161 410.889 687.244 418.491 687.912 422.167C688.247 424.004 688.581 425.842 688.915 427.68C689.082 427.596 689.249 427.513 689.416 427.429C689.75 427.262 689.834 422.083 689.667 411.892C689.5 401.701 690.168 390.925 691.672 379.564C693.175 368.203 695.18 356.592 697.686 344.73C700.192 332.868 701.445 326.268 701.445 324.932C701.445 323.595 701.278 322.844 700.944 322.676C700.777 322.593 700.61 322.509 700.443 322.426C700.109 323.261 699.774 324.097 699.44 324.932ZM590.928 323.428C594.103 323.762 595.69 324.097 595.69 324.431C595.69 324.765 594.938 325.6 593.434 326.937C591.931 328.273 590.176 330.696 588.172 334.204C586.167 337.713 584.58 339.383 583.41 339.216C582.241 339.049 580.988 338.047 579.651 336.209C578.315 334.371 576.477 333.035 574.138 332.199C571.799 331.364 570.629 330.362 570.629 329.192C570.629 328.023 572.133 326.853 575.14 325.684C578.147 324.514 580.737 323.762 582.909 323.428C585.081 323.094 587.754 323.094 590.928 323.428ZM504.72 333.703C504.219 335.541 504.052 337.546 504.219 339.718C504.302 340.804 504.386 341.89 504.47 342.975C504.302 342.975 504.135 342.975 503.968 342.975C503.634 342.975 503.133 341.973 502.465 339.968C501.796 337.963 501.045 337.044 500.209 337.212C499.374 337.379 498.956 338.298 498.956 339.968C498.956 341.639 499.207 344.646 499.708 348.99C499.959 351.162 500.209 353.334 500.46 355.506C500.794 355.172 501.128 354.837 501.462 354.503C502.131 353.835 502.548 352.498 502.715 350.494C502.799 349.491 502.882 348.489 502.966 347.486C503.467 348.823 503.968 350.159 504.47 351.496C505.472 354.169 506.307 355.589 506.976 355.756C507.31 355.84 507.644 355.923 507.978 356.007C507.894 352.582 507.811 349.157 507.727 345.732C507.56 338.882 507.31 334.705 506.976 333.202C506.641 331.698 506.307 330.946 505.973 330.946C505.639 330.946 505.221 331.865 504.72 333.703ZM544.065 345.983C542.729 348.322 541.977 350.41 541.81 352.248C541.726 353.167 541.643 354.086 541.559 355.005C541.81 354.921 542.06 354.837 542.311 354.754C542.812 354.587 543.564 352.498 544.566 348.489C545.068 346.484 545.569 344.479 546.07 342.474C545.402 343.644 544.733 344.813 544.065 345.983ZM533.039 349.742C532.036 350.577 530.616 352.833 528.778 356.508C526.94 360.184 525.52 363.859 524.518 367.535C523.516 371.21 523.014 374.218 523.014 376.557C523.014 377.726 523.014 378.896 523.014 380.065C523.265 379.981 523.516 379.898 523.766 379.814C524.267 379.647 524.685 378.144 525.019 375.304C525.353 372.463 525.938 369.79 526.773 367.284C527.609 364.778 529.279 361.186 531.785 356.508C534.292 351.83 535.378 349.324 535.043 348.99C534.709 348.656 534.041 348.906 533.039 349.742ZM494.696 353.751C494.529 354.587 494.696 355.422 495.197 356.258C495.698 357.093 496.283 361.353 496.951 369.038C497.62 376.724 497.787 380.65 497.453 380.817C497.118 380.984 496.534 380.65 495.698 379.814C494.863 378.979 494.111 378.561 493.443 378.561C492.775 378.561 492.357 378.979 492.19 379.814C492.023 380.65 492.357 382.404 493.192 385.077C494.028 387.75 494.529 390.089 494.696 392.094C494.863 394.099 495.197 395.352 495.698 395.853C495.949 396.104 496.2 396.354 496.45 396.605C496.534 395.435 496.617 394.266 496.701 393.096C496.868 390.758 496.701 388.669 496.2 386.831C495.949 385.912 495.698 384.994 495.448 384.075C495.698 384.075 495.949 384.075 496.2 384.075C496.701 384.075 497.202 384.409 497.703 385.077C497.954 385.411 498.204 385.745 498.455 386.08C498.789 385.829 499.123 385.578 499.457 385.328C500.126 384.827 500.46 382.655 500.46 378.812C500.46 374.969 500.126 370.041 499.457 364.026C498.789 358.012 498.288 354.587 497.954 353.751C497.62 352.916 497.035 352.498 496.2 352.498C495.364 352.498 494.863 352.916 494.696 353.751ZM663.353 364.026C663.854 366.365 664.356 368.704 664.857 371.043C664.773 369.289 664.69 367.535 664.606 365.781C664.439 362.272 664.105 359.933 663.604 358.764C663.103 357.594 662.685 357.009 662.351 357.009C662.184 357.009 662.017 357.009 661.85 357.009C662.351 359.348 662.852 361.687 663.353 364.026ZM558.6 384.576C557.932 387.917 557.18 390.507 556.345 392.345C555.927 393.264 555.509 394.182 555.092 395.101C555.593 395.018 556.094 394.934 556.595 394.851C557.598 394.684 558.433 394.015 559.101 392.846C559.77 391.676 560.271 389.504 560.605 386.33C560.939 383.156 560.856 381.235 560.354 380.566C560.104 380.232 559.853 379.898 559.603 379.564C559.269 381.235 558.934 382.905 558.6 384.576ZM548.075 394.6C547.072 400.281 546.404 403.204 546.07 403.371C545.903 403.455 545.736 403.538 545.569 403.622C545.151 402.536 544.733 401.45 544.316 400.364C543.48 398.192 542.645 396.939 541.81 396.605C540.974 396.271 540.139 396.939 539.304 398.61C538.468 400.281 537.633 402.87 536.798 406.379C536.38 408.133 535.962 409.887 535.545 411.641C535.879 411.474 536.213 411.307 536.547 411.14C537.215 410.806 538.218 408.885 539.554 405.376C540.223 403.622 540.891 401.868 541.559 400.113C541.977 401.199 542.394 402.285 542.812 403.371C543.647 405.543 544.065 407.297 544.065 408.634C544.065 409.971 544.483 410.973 545.318 411.641C545.736 411.975 546.154 412.31 546.571 412.644C546.488 411.474 546.404 410.305 546.321 409.135C546.154 406.796 546.404 405.126 547.072 404.123C547.741 403.121 548.576 400.531 549.578 396.354C550.581 392.178 550.999 389.421 550.831 388.084C550.664 386.748 550.414 386.08 550.08 386.08C549.746 386.08 549.077 388.92 548.075 394.6ZM489.934 399.111C489.934 403.121 490.102 406.211 490.436 408.383C490.77 410.555 491.104 411.725 491.438 411.892C491.605 411.975 491.772 412.059 491.939 412.142C492.106 410.305 492.273 408.467 492.44 406.629C492.775 402.954 492.608 399.863 491.939 397.357C491.271 394.851 490.77 393.514 490.436 393.347C490.269 393.264 490.102 393.18 489.934 393.096C489.934 395.101 489.934 397.106 489.934 399.111ZM480.161 423.921C476.987 428.098 474.564 430.938 472.893 432.441C472.058 433.193 471.223 433.945 470.387 434.697C470.22 434.446 470.053 434.196 469.886 433.945C469.552 433.444 469.635 432.107 470.137 429.935C470.638 427.764 470.888 425.341 470.888 422.668C470.888 421.331 470.888 419.995 470.888 418.658C470.471 418.742 470.053 418.825 469.635 418.909C468.8 419.076 467.547 421.498 465.876 426.176C464.206 430.854 460.697 437.37 455.351 445.724C450.005 454.077 447.164 458.17 446.83 458.003C446.496 457.836 446.329 455.831 446.329 451.989C446.329 448.146 446.079 445.807 445.577 444.972C445.076 444.136 444.575 443.719 444.074 443.719C443.572 443.719 442.737 446.308 441.568 451.487C440.398 456.667 438.56 461.595 436.054 466.273C434.801 468.612 433.548 470.951 432.295 473.29C433.214 472.371 434.133 471.452 435.052 470.533C436.89 468.696 438.727 465.605 440.565 461.261C441.484 459.089 442.403 456.917 443.322 454.745C443.322 456.165 443.322 457.586 443.322 459.006C443.322 461.846 443.656 463.517 444.324 464.018C444.658 464.268 444.993 464.519 445.327 464.77C447.582 461.679 449.838 458.588 452.093 455.497C456.604 449.316 460.112 443.802 462.618 438.957C465.125 434.112 466.545 431.606 466.879 431.439C467.046 431.356 467.213 431.272 467.38 431.188C467.129 432.024 466.879 432.859 466.628 433.695C466.127 435.365 466.043 436.702 466.378 437.704C466.545 438.205 466.712 438.707 466.879 439.208C467.881 438.79 468.884 438.372 469.886 437.955C471.891 437.119 474.731 434.613 478.407 430.437C482.082 426.26 484.254 423.503 484.922 422.167C485.591 420.83 485.758 419.744 485.424 418.909C485.256 418.491 485.089 418.073 484.922 417.656C483.335 419.744 481.748 421.833 480.161 423.921ZM593.434 427.931C592.599 429.1 590.511 430.437 587.169 431.94C583.828 433.444 580.653 434.613 577.646 435.449C574.639 436.284 570.963 436.702 566.62 436.702C562.276 436.702 559.352 437.036 557.848 437.704C556.345 438.372 555.342 439.041 554.841 439.709C554.591 440.043 554.34 440.377 554.089 440.711C555.259 440.21 556.428 439.709 557.598 439.208C559.937 438.205 563.028 437.788 566.87 437.955C570.713 438.122 573.386 438.038 574.89 437.704C576.393 437.37 579.568 436.284 584.413 434.446C586.835 433.527 589.258 432.609 591.68 431.69C591.513 432.274 591.346 432.859 591.179 433.444C590.845 434.613 589.675 435.95 587.67 437.454C585.666 438.957 583.16 440.377 580.152 441.714C577.145 443.05 574.138 443.969 571.131 444.471C569.627 444.721 568.123 444.972 566.62 445.222C567.037 445.473 567.455 445.724 567.873 445.974C568.708 446.475 570.713 446.475 573.887 445.974C577.061 445.473 580.821 443.886 585.164 441.213C589.508 438.54 592.432 435.616 593.936 432.441C595.439 429.267 595.94 427.429 595.439 426.928C595.189 426.678 594.938 426.427 594.687 426.176C594.27 426.761 593.852 427.346 593.434 427.931ZM587.42 443.719C585.916 444.721 583.661 445.724 580.653 446.726C577.646 447.728 576.143 448.564 576.143 449.232C576.143 449.9 576.811 450.402 578.147 450.736C578.816 450.903 579.484 451.07 580.152 451.237C579.568 451.404 578.983 451.571 578.398 451.738C577.229 452.072 576.477 452.406 576.143 452.741C575.808 453.075 575.725 453.492 575.892 453.994C576.059 454.495 577.061 454.996 578.899 455.497C580.737 455.998 582.825 456.249 585.164 456.249C586.334 456.249 587.503 456.249 588.673 456.249C588.673 455.998 588.673 455.748 588.673 455.497C588.673 454.996 587.336 454.662 584.663 454.495C581.99 454.328 580.653 454.077 580.653 453.743C580.653 453.409 582.324 453.075 585.666 452.741C589.007 452.406 590.678 451.905 590.678 451.237C590.678 450.569 589.007 450.151 585.666 449.984C582.324 449.817 580.57 449.566 580.403 449.232C580.319 449.065 580.236 448.898 580.152 448.731C581.823 448.063 583.494 447.394 585.164 446.726C588.506 445.389 590.427 444.303 590.928 443.468C591.179 443.05 591.43 442.633 591.68 442.215C591.346 442.215 591.012 442.215 590.678 442.215C590.009 442.215 588.923 442.716 587.42 443.719ZM698.187 450.736C700.359 454.411 706.29 461.01 715.98 470.533C725.67 480.056 730.85 484.902 731.518 485.069C732.186 485.236 733.272 486.071 734.776 487.575C736.279 489.078 741.375 493.004 750.063 499.353C758.75 505.702 764.264 508.876 766.603 508.876C767.772 508.876 768.941 508.876 770.111 508.876C767.438 507.038 764.765 505.201 762.092 503.363C756.745 499.687 753.655 497.348 752.819 496.346C751.984 495.343 751.316 494.842 750.814 494.842C750.313 494.842 748.559 493.422 745.552 490.582C742.544 487.742 740.623 486.155 739.788 485.82C738.952 485.486 736.446 483.481 732.27 479.806C728.093 476.13 725.67 474.209 725.002 474.042C724.334 473.875 722.412 472.204 719.238 469.03C716.064 465.856 713.391 463.517 711.219 462.013C709.047 460.509 706.29 457.669 702.949 453.492C699.607 449.316 697.435 446.893 696.433 446.225C695.932 445.891 695.431 445.556 694.929 445.222C696.015 447.06 697.101 448.898 698.187 450.736ZM604.21 447.979C604.21 448.48 605.296 450.234 607.468 453.242C609.64 456.249 611.227 459.925 612.23 464.268C613.232 468.612 614.736 473.123 616.741 477.801C618.745 482.479 621.753 487.491 625.762 492.837C629.772 498.184 633.281 502.444 636.288 505.618C639.295 508.793 641.634 510.38 643.305 510.38C644.14 510.38 644.975 510.38 645.811 510.38C644.474 508.96 643.138 507.54 641.801 506.119C639.128 503.279 637.791 501.609 637.791 501.107C637.791 500.606 636.789 499.353 634.784 497.348C632.779 495.343 631.443 493.673 630.775 492.336C630.106 491 628.603 488.995 626.264 486.322C623.925 483.648 621.084 478.135 617.743 469.782C614.402 461.428 611.729 455.831 609.724 452.991C607.719 450.151 606.299 448.48 605.463 447.979C605.046 447.728 604.628 447.478 604.21 447.227C604.21 447.478 604.21 447.728 604.21 447.979ZM676.635 458.003C676.134 458.839 675.633 460.76 675.132 463.767C674.63 466.774 674.38 470.533 674.38 475.044C674.38 479.555 674.797 483.899 675.633 488.076C676.468 492.253 677.22 494.592 677.888 495.093C678.222 495.343 678.557 495.594 678.891 495.845C678.974 495.51 679.058 495.176 679.141 494.842C679.225 494.508 679.308 494.174 679.392 493.84C679.726 494.675 680.06 495.51 680.394 496.346C680.728 497.181 681.063 498.017 681.397 498.852C680.896 494.007 680.394 489.162 679.893 484.317C678.891 474.627 678.39 468.278 678.39 465.271C678.39 463.767 678.39 462.264 678.39 460.76C678.473 460.927 678.557 461.094 678.64 461.261C678.724 461.428 678.807 461.595 678.891 461.762C678.974 461.595 679.058 461.428 679.141 461.261C679.308 460.927 679.308 460.175 679.141 459.006C678.974 457.836 678.64 457.168 678.139 457.001C677.638 456.834 677.136 457.168 676.635 458.003ZM453.346 466.524C448 472.705 443.99 476.966 441.317 479.305C438.644 481.644 437.057 482.897 436.556 483.064C436.305 483.147 436.054 483.231 435.804 483.314C436.221 482.061 436.639 480.808 437.057 479.555C437.892 477.049 438.31 475.462 438.31 474.794C438.31 474.46 438.31 474.125 438.31 473.791C438.059 473.875 437.809 473.958 437.558 474.042C437.057 474.209 435.887 476.297 434.049 480.307C432.212 484.317 431.376 486.656 431.543 487.324C431.627 487.658 431.711 487.992 431.794 488.326C433.047 487.658 434.3 486.99 435.553 486.322C438.059 484.985 441.401 482.312 445.577 478.302C449.754 474.293 453.095 470.701 455.602 467.526C458.108 464.352 459.695 461.846 460.363 460.008C460.697 459.089 461.031 458.17 461.365 457.251C458.692 460.342 456.019 463.433 453.346 466.524ZM575.14 459.757C575.14 460.76 575.892 461.679 577.396 462.514C578.899 463.349 579.818 464.101 580.152 464.77C580.319 465.104 580.486 465.438 580.653 465.772C578.983 465.856 577.312 465.939 575.641 466.023C572.3 466.19 569.293 466.941 566.62 468.278C565.283 468.946 563.946 469.615 562.61 470.283C563.111 469.364 563.612 468.445 564.114 467.526C565.116 465.688 565.868 464.686 566.369 464.519C566.87 464.352 567.121 463.934 567.121 463.266C567.121 462.932 567.121 462.598 567.121 462.264C566.703 462.264 566.285 462.264 565.868 462.264C565.032 462.264 563.612 463.433 561.608 465.772C559.603 468.111 558.183 470.116 557.347 471.787C556.512 473.457 556.011 475.128 555.844 476.799C555.76 477.634 555.677 478.469 555.593 479.305C556.011 478.887 556.428 478.469 556.846 478.052C557.681 477.216 558.266 476.214 558.6 475.044C558.767 474.46 558.934 473.875 559.101 473.29C559.519 473.457 559.937 473.624 560.354 473.791C561.19 474.125 561.942 473.958 562.61 473.29C563.278 472.622 565.367 471.536 568.875 470.032C572.384 468.529 575.725 467.777 578.899 467.777C580.486 467.777 582.074 467.777 583.661 467.777C583.494 467.192 583.327 466.607 583.16 466.023C582.825 464.853 581.823 463.684 580.152 462.514C578.482 461.345 577.479 460.342 577.145 459.507C576.811 458.672 576.393 458.254 575.892 458.254C575.641 458.254 575.391 458.254 575.14 458.254C575.14 458.755 575.14 459.256 575.14 459.757ZM568.875 473.791C565.367 475.128 562.693 476.715 560.856 478.553C559.018 480.391 558.266 481.644 558.6 482.312C558.934 482.98 560.104 483.147 562.109 482.813C563.111 482.646 564.114 482.479 565.116 482.312C565.032 482.813 564.949 483.314 564.865 483.816C564.698 484.818 565.2 485.653 566.369 486.322C566.954 486.656 567.538 486.99 568.123 487.324C566.703 487.408 565.283 487.491 563.863 487.575C561.023 487.742 559.101 487.992 558.099 488.326C557.097 488.661 556.261 489.245 555.593 490.081C554.925 490.916 553.421 491.501 551.082 491.835C548.743 492.169 547.156 492.754 546.321 493.589C545.903 494.007 545.485 494.424 545.068 494.842C546.738 494.508 548.409 494.174 550.08 493.84C553.421 493.171 558.016 492.837 563.863 492.837C566.787 492.837 569.71 492.837 572.634 492.837C572.551 492.336 572.467 491.835 572.384 491.334C572.3 490.832 572.216 490.331 572.133 489.83C572.968 489.83 573.804 489.83 574.639 489.83C576.31 489.83 577.229 489.412 577.396 488.577C577.563 487.742 576.059 486.906 572.885 486.071C571.298 485.653 569.71 485.236 568.123 484.818C568.29 484.567 568.457 484.317 568.624 484.066C568.959 483.565 570.295 483.147 572.634 482.813C574.973 482.479 576.143 481.978 576.143 481.309C576.143 480.975 576.143 480.641 576.143 480.307C573.887 480.307 571.632 480.307 569.376 480.307C567.121 480.307 564.865 480.307 562.61 480.307C562.777 479.973 562.944 479.639 563.111 479.305C563.445 478.636 564.197 477.968 565.367 477.3C566.536 476.632 568.374 475.88 570.88 475.044C573.386 474.209 574.723 473.541 574.89 473.04C575.057 472.538 574.973 472.204 574.639 472.037C574.305 471.87 572.384 472.455 568.875 473.791ZM424.025 482.312C422.856 487.324 420.851 492.169 418.011 496.847C416.591 499.186 415.171 501.525 413.75 503.864C414.419 503.53 415.087 503.196 415.755 502.862C417.092 502.193 418.763 500.188 420.767 496.847C422.772 493.506 424.276 489.747 425.278 485.57C426.281 481.393 426.615 478.553 426.281 477.049C426.114 476.297 425.947 475.546 425.78 474.794C425.195 477.3 424.61 479.806 424.025 482.312ZM524.518 478.553C521.511 479.388 519.255 480.224 517.752 481.059C516.248 481.894 515.162 482.73 514.494 483.565C514.16 483.983 513.825 484.4 513.491 484.818C512.99 484.317 512.489 483.816 511.988 483.314C510.985 482.312 510.233 481.811 509.732 481.811C509.231 481.811 507.894 482.98 505.723 485.319C503.551 487.658 501.629 489.245 499.959 490.081C498.288 490.916 497.369 491.584 497.202 492.086C497.118 492.336 497.035 492.587 496.951 492.837C497.87 492.587 498.789 492.336 499.708 492.086C501.546 491.584 503.634 490.164 505.973 487.825C507.143 486.656 508.312 485.486 509.482 484.317C509.565 484.567 509.649 484.818 509.732 485.069C509.899 485.57 510.568 486.155 511.737 486.823C512.907 487.491 514.16 487.825 515.496 487.825C516.164 487.825 516.833 487.825 517.501 487.825C517.167 489.329 516.833 490.832 516.499 492.336C516.164 493.84 515.83 495.343 515.496 496.847C515.914 496.763 516.332 496.68 516.749 496.596C517.585 496.429 518.336 496.012 519.005 495.343C519.339 495.009 519.673 494.675 520.007 494.341C520.174 495.427 520.341 496.513 520.508 497.599C520.842 499.771 521.594 501.107 522.764 501.609C523.933 502.11 524.852 502.026 525.52 501.358C525.855 501.024 526.189 500.69 526.523 500.355C526.022 500.188 525.52 500.021 525.019 499.854C524.017 499.52 523.265 498.1 522.764 495.594C522.513 494.341 522.263 493.088 522.012 491.835C521.594 491.918 521.177 492.002 520.759 492.086C520.341 492.169 519.924 492.253 519.506 492.336C519.589 491.25 519.673 490.164 519.756 489.078C519.924 486.906 519.172 485.653 517.501 485.319C516.666 485.152 515.83 484.985 514.995 484.818C516.666 483.983 518.336 483.147 520.007 482.312C523.348 480.641 526.022 479.639 528.026 479.305C530.031 478.971 532.37 478.971 535.043 479.305C537.716 479.639 539.638 480.14 540.807 480.808C541.392 481.142 541.977 481.477 542.562 481.811C541.559 482.563 540.557 483.314 539.554 484.066C537.549 485.57 535.378 487.658 533.039 490.331C530.7 493.004 529.196 495.009 528.528 496.346C527.859 497.682 527.525 498.601 527.525 499.102C527.525 499.604 527.859 499.938 528.528 500.105C529.196 500.272 530.282 499.019 531.785 496.346C533.289 493.673 535.461 491 538.301 488.326C541.141 485.653 543.063 484.066 544.065 483.565C545.068 483.064 545.569 482.479 545.569 481.811C545.569 481.142 544.399 480.307 542.06 479.305C539.721 478.302 536.965 477.717 533.79 477.55C530.616 477.383 527.525 477.717 524.518 478.553ZM411.746 492.336C410.743 496.346 408.989 500.857 406.483 505.869C405.23 508.375 403.977 510.881 402.724 513.387C403.309 513.387 403.893 513.387 404.478 513.387C405.648 513.387 406.901 512.134 408.237 509.628C409.574 507.122 410.994 503.029 412.497 497.348C414.001 491.668 414.669 488.41 414.502 487.575C414.335 486.739 414.085 486.322 413.75 486.322C413.416 486.322 412.748 488.326 411.746 492.336ZM572.384 498.852C572.801 499.687 573.219 500.523 573.637 501.358C571.047 501.107 568.457 500.857 565.868 500.606C560.689 500.105 557.097 500.188 555.092 500.857C553.087 501.525 551.917 502.193 551.583 502.862C551.416 503.196 551.249 503.53 551.082 503.864C552.419 504.532 553.755 505.201 555.092 505.869C557.765 507.205 559.436 508.375 560.104 509.377C560.772 510.38 561.691 510.964 562.861 511.132C563.445 511.215 564.03 511.299 564.615 511.382C563.195 509.962 561.775 508.542 560.354 507.122C558.934 505.702 557.514 504.282 556.094 502.862C558.099 502.778 560.104 502.694 562.109 502.611C566.118 502.444 569.46 502.611 572.133 503.112C574.806 503.613 576.226 503.53 576.393 502.862C576.56 502.193 576.393 501.358 575.892 500.355C575.391 499.353 574.723 498.434 573.887 497.599C573.052 496.763 572.384 496.346 571.882 496.346C571.632 496.346 571.381 496.346 571.131 496.346C571.548 497.181 571.966 498.017 572.384 498.852ZM491.438 498.601C489.767 499.437 488.514 500.439 487.679 501.609C487.261 502.193 486.844 502.778 486.426 503.363C488.18 502.527 489.934 501.692 491.689 500.857C495.197 499.186 496.951 498.184 496.951 497.849C496.951 497.682 496.951 497.515 496.951 497.348C496.45 497.348 495.949 497.348 495.448 497.348C494.445 497.348 493.109 497.766 491.438 498.601ZM398.965 506.37C397.545 508.709 396.125 511.048 394.704 513.387C395.206 513.387 395.707 513.387 396.208 513.387C397.211 513.387 398.046 512.719 398.714 511.382C399.382 510.046 399.884 509.377 400.218 509.377C400.552 509.377 401.304 508.124 402.473 505.618C403.643 503.112 404.227 501.441 404.227 500.606C404.227 500.188 404.227 499.771 404.227 499.353C404.06 499.353 403.893 499.353 403.726 499.353C403.392 499.353 401.805 501.692 398.965 506.37ZM522.012 504.365C520.007 505.368 518.336 506.871 517 508.876C516.332 509.878 515.663 510.881 514.995 511.883C515.496 511.883 515.997 511.883 516.499 511.883C517 511.883 517.501 511.883 518.002 511.883C518.002 511.633 518.002 511.382 518.002 511.132C518.002 510.63 518.754 509.878 520.258 508.876C521.761 507.874 522.68 507.54 523.014 507.874C523.348 508.208 523.265 508.96 522.764 510.129C522.513 510.714 522.263 511.299 522.012 511.883C522.513 511.883 523.014 511.883 523.516 511.883C524.518 511.883 525.27 510.881 525.771 508.876C526.272 506.871 526.69 505.785 527.024 505.618C527.358 505.451 527.442 504.95 527.275 504.115C527.108 503.279 526.69 502.862 526.022 502.862C525.353 502.862 524.017 503.363 522.012 504.365ZM494.195 505.368C493.025 506.704 491.104 508.208 488.431 509.878C487.094 510.714 485.758 511.549 484.421 512.385C485.34 512.385 486.259 512.385 487.178 512.385C489.016 512.385 490.77 511.8 492.44 510.63C494.111 509.461 495.364 508.291 496.2 507.122C497.035 505.952 497.453 505.033 497.453 504.365C497.453 504.031 497.453 503.697 497.453 503.363C497.202 503.363 496.951 503.363 496.701 503.363C496.2 503.363 495.364 504.031 494.195 505.368ZM548.075 510.881C547.908 511.048 547.741 511.215 547.574 511.382C549.244 511.382 550.915 511.382 552.586 511.382C554.256 511.382 555.927 511.382 557.598 511.382C556.094 511.215 554.591 511.048 553.087 510.881C550.08 510.547 548.409 510.547 548.075 510.881ZM579.651 202.637C579.985 203.054 580.319 203.472 580.653 203.89C581.322 204.725 581.823 206.062 582.157 207.899C582.491 209.737 583.243 211.993 584.413 214.666C585.582 217.339 586.919 219.761 588.422 221.933C589.926 224.105 590.761 225.609 590.928 226.444C591.095 227.279 592.766 229.869 595.94 234.213C599.115 238.557 601.37 241.313 602.707 242.483C604.043 243.652 605.046 245.991 605.714 249.5C606.382 253.008 607.719 257.101 609.724 261.779C611.729 266.457 613.566 270.133 615.237 272.806C616.908 275.479 617.91 276.816 618.244 276.816C618.578 276.816 618.829 277.233 618.996 278.069C619.163 278.904 620.667 280.742 623.507 283.582C626.347 286.422 627.517 289.429 627.015 292.604C626.514 295.778 625.178 300.54 623.006 306.888C621.92 310.063 620.834 313.237 619.748 316.411C619.163 315.66 618.578 314.908 617.994 314.156C616.824 312.652 615.571 310.397 614.235 307.39C612.898 304.382 611.394 300.122 609.724 294.609C608.053 289.095 606.299 285.253 604.461 283.081C602.623 280.909 600.869 278.152 599.198 274.811C597.528 271.469 596.525 269.799 596.191 269.799C595.857 269.799 595.022 266.457 593.685 259.775C592.348 253.092 589.675 246.492 585.666 239.977C581.656 233.461 579.15 227.864 578.147 223.186C577.145 218.508 577.145 213.914 578.147 209.403C578.649 207.147 579.15 204.892 579.651 202.637ZM543.313 262.03C543.731 262.114 544.149 262.197 544.566 262.281C544.399 262.865 544.232 263.45 544.065 264.035C543.731 265.204 542.06 267.543 539.053 271.052C536.046 274.56 534.292 276.314 533.79 276.314C533.289 276.314 532.955 275.73 532.788 274.56C532.621 273.391 532.12 272.388 531.284 271.553C530.449 270.718 530.031 270.049 530.031 269.548C530.031 269.047 530.783 268.128 532.287 266.792C533.79 265.455 535.795 264.285 538.301 263.283C540.807 262.281 542.478 261.863 543.313 262.03Z" id="Fill_2"/>
</defs>
<g id="Layer-1" vectornator:layerName="Layer 1">
<g opacity="1">
<path d="M1162.35 657.925C1159.49 660.945 1156.22 663.498 1152.76 665.751C1156.21 663.491 1159.5 660.953 1162.35 657.925ZM1152.76 665.751C1151.98 666.264 1151.11 666.65 1150.3 667.132C1151.11 666.652 1151.98 666.262 1152.76 665.751ZM1150.3 667.132C1147.47 668.826 1144.54 670.485 1141.56 671.889C1142.21 671.58 1142.91 671.365 1143.55 671.045C1145.88 669.892 1148.08 668.469 1150.3 667.132ZM1140.48 672.426C1132.64 676.033 1124.55 678.905 1116.31 681.48C1083.17 691.852 1048.57 697.626 1014.27 702.656C955.785 711.234 896.754 716.27 837.802 720.303C762.154 725.478 686.345 728.575 610.542 730.277C557.326 731.472 504.105 732.15 450.876 731.582C433.608 731.397 416.265 731.089 399.01 730.354C393.482 730.118 387.95 729.838 382.437 729.356C381.071 729.237 379.732 729.072 378.371 728.896C378.727 728.852 379.089 728.785 379.445 728.743C382.666 728.363 385.884 728.052 389.112 727.745C403.813 726.351 418.591 725.141 433.306 723.909C489.979 719.164 546.652 714.658 603.176 708.334C620.098 706.441 637.174 704.587 653.891 701.275C655.279 701 656.582 700.752 657.958 700.431C658.549 700.293 659.135 700.122 659.723 699.971C661.155 699.601 666.826 698.426 666.705 696.058C666.594 693.911 662.016 693.196 660.49 692.912C652.967 691.51 645.165 691.123 637.549 690.61C635.119 690.447 632.304 690.298 629.876 690.15C592.345 687.853 554.76 686.819 517.167 686.237C438.821 685.024 360.381 686.05 282.081 688.922C197.321 692.031 112.622 697.469 28.35 707.183C112.641 697.717 197.398 692.473 282.157 689.613C354.418 687.175 426.687 686.391 498.983 687.388C538.485 687.932 578 688.946 617.447 691.147C628.629 691.771 639.906 692.408 651.053 693.526C654.093 693.831 657.102 694.185 660.106 694.753C661.619 695.04 663.211 695.443 664.556 696.211C664.377 696.348 664.23 696.49 664.019 696.595C663.409 696.897 662.749 697.155 662.101 697.362C659.981 698.04 657.832 698.513 655.656 698.973C650.585 700.045 645.437 700.901 640.311 701.659C624.979 703.924 609.534 705.567 594.122 707.183C544.874 712.347 495.539 716.33 446.196 720.456C427.102 722.053 407.952 723.574 388.882 725.444C387.485 725.58 385.835 725.758 384.432 725.904C383.179 726.034 381.999 726.145 380.749 726.287C380.227 726.347 379.737 726.455 379.215 726.518C378.762 726.573 378.286 726.612 377.834 726.671C376.737 726.815 371.984 727.022 372.77 729.28C373.165 730.415 374.849 730.634 375.839 730.814C378.437 731.287 381.112 731.459 383.742 731.658C394.91 732.505 406.153 732.787 417.347 733.039C463.846 734.088 510.334 733.636 556.834 732.886C635.591 731.615 714.366 728.746 792.994 724.062C862.806 719.904 932.615 714.343 1001.92 704.804C1022.83 701.926 1043.74 698.565 1064.45 694.446C1081.93 690.971 1099.31 687.001 1116.31 681.633C1124.53 679.041 1132.66 676.054 1140.48 672.426Z" fill="#ffffff" fill-rule="nonzero" opacity="1" stroke="none"/>
<path d="M136.072 507.313C124.861 507.144 113.602 507.364 102.39 507.39C77.7117 507.448 53.0282 507.486 28.35 507.544C64.2433 507.627 100.18 507.516 136.072 507.774C136.714 507.778 139.341 509.426 139.985 509.769C142.766 511.25 145.464 512.829 148.118 514.526C156.293 519.75 164.325 525.987 170.292 533.707C173.556 537.93 176.2 542.64 178.348 547.518C180.237 551.809 181.79 556.249 182.951 560.791C183.271 562.042 183.542 563.285 183.795 564.551C183.845 564.797 183.829 565.542 184.102 565.778C184.497 566.119 185.55 565.482 185.79 565.395C186.09 565.286 186.334 565.194 186.634 565.088C187.01 564.954 187.408 564.757 187.785 564.627C190.552 563.673 193.334 562.824 196.148 562.019C203.785 559.832 211.74 558.042 219.703 557.722C223.293 557.578 227.062 557.643 230.521 558.719C239.247 561.436 245.482 569.803 250.009 577.287C251.588 579.896 253.022 582.578 254.306 585.343C254.487 585.733 254.955 587.567 255.764 587.645C256.68 587.733 258.7 585.462 259.14 585.113C262.431 582.498 265.819 579.997 269.267 577.594C279.114 570.731 289.562 564.546 300.955 560.638C312.012 556.844 323.161 556.996 333.103 563.86C336.824 566.429 340.04 569.722 342.694 573.374C342.918 573.683 343.092 573.98 343.307 574.295C343.568 574.675 344.659 577.193 345.686 577.133C346.542 577.084 347.595 575.094 347.834 574.755C348.079 574.409 348.354 574.024 348.601 573.681C350.378 571.213 352.148 568.842 354.049 566.469C357.879 561.686 361.961 556.95 366.632 552.965C369.184 550.788 372.107 548.574 375.379 547.594C381.845 545.658 387.373 550.52 390.877 555.42C391.863 556.8 392.691 558.22 393.486 559.717C393.692 560.106 393.909 560.473 394.1 560.868C394.14 560.951 394.226 560.991 394.253 561.098C394.261 561.121 394.245 561.152 394.253 561.175C394.286 561.31 394.359 561.369 394.406 561.482C394.469 561.628 394.487 561.864 394.637 561.865C395.222 561.871 395.872 561.962 396.401 561.712C396.767 561.539 396.408 560.861 396.248 560.407C396.347 560.498 396.518 560.73 396.478 560.638C396.43 560.527 396.297 560.442 396.248 560.331C396.239 560.306 396.256 560.276 396.248 560.254C396.224 560.188 396.26 560.061 396.248 560.024C396.025 559.344 395.841 558.713 395.634 558.029C394.308 553.648 393.176 549.192 392.412 544.679C390.841 535.407 390.738 525.761 394.944 517.134C395.952 515.065 397.179 512.908 398.78 511.226C399.201 510.781 399.148 510.114 398.703 509.692C398.258 509.27 397.59 509.323 397.169 509.769C395.416 511.625 394.06 513.858 392.949 516.137C388.534 525.186 388.539 535.249 390.187 544.986C390.671 547.848 391.459 550.688 392.181 553.502C388.132 548.136 382.446 543.938 375.609 545.292C370.982 546.209 366.87 549.8 363.563 552.888C358.537 557.583 354.112 562.978 349.982 568.464C348.708 570.156 347.435 571.866 346.223 573.604C346.034 573.875 345.873 574.176 345.686 574.448C345.606 574.321 345.53 574.178 345.456 574.064C344.804 573.07 344.119 572.084 343.384 571.149C341.176 568.338 338.626 565.808 335.788 563.63C326.102 556.194 315.096 554.887 303.64 558.106C290.912 561.682 279.148 568.881 268.423 576.443C265.443 578.545 262.542 580.708 259.677 582.965C258.677 583.752 257.666 584.533 256.685 585.343C256.475 585.516 256.279 585.706 256.071 585.88C255.905 585.511 255.706 585.172 255.534 584.806C254.973 583.617 254.385 582.438 253.769 581.277C251.961 577.868 249.914 574.568 247.631 571.456C243.387 565.669 237.89 559.806 230.828 557.645C224.154 555.603 216.539 556.606 209.805 557.799C203.806 558.862 197.886 560.404 192.082 562.249C190.17 562.856 188.215 563.564 186.327 564.244C185.799 564.434 185.318 564.582 184.793 564.781C184.771 564.789 184.747 564.769 184.716 564.781C184.711 564.754 184.721 564.73 184.716 564.704C184.697 564.608 184.659 564.493 184.639 564.397C184.591 564.163 184.536 563.94 184.486 563.707C184.422 563.412 184.323 563.079 184.256 562.786C184.175 562.436 184.111 562.137 184.026 561.788C183.929 561.392 183.822 560.955 183.719 560.561C182.701 556.661 181.432 552.85 179.882 549.129C177.542 543.507 174.583 538.056 170.829 533.247C164.778 525.496 156.688 519.293 148.425 514.065C145.432 512.172 142.369 510.388 139.218 508.771C138.456 508.38 136.98 507.327 136.072 507.313Z" fill="#ffffff" fill-rule="nonzero" opacity="1" stroke="none"/>
<path d="M767.061 506.546C766.505 506.288 765.785 506.527 765.527 507.083C765.268 507.64 765.508 508.283 766.064 508.541C769.24 509.985 771.845 515.669 773.353 518.592C778.435 528.443 782.43 538.891 786.243 549.282C787.139 551.726 787.99 554.115 788.851 556.571C789.103 557.289 789.353 559.344 790.232 559.947C791.333 560.702 793.538 558.517 794.145 558.106C794.443 557.904 794.923 557.533 795.219 557.338C795.629 557.07 796.111 556.836 796.524 556.571C796.98 556.278 797.367 556.013 797.828 555.727C798.329 555.416 798.857 555.109 799.363 554.806C806.944 550.265 815.677 545.69 824.682 545.292C834.112 544.876 841.334 551.657 846.242 559.026C847.73 561.26 849.075 563.587 850.231 566.008C850.452 566.469 851.078 568.971 852.15 569.001C853.07 569.026 854.666 566.988 855.065 566.622C857.449 564.435 859.891 562.334 862.431 560.331C869.503 554.75 879.156 547.819 888.441 547.211C897.946 546.588 904.831 554.981 909.08 562.479C909.574 563.352 910.087 564.342 910.538 565.241C910.95 566.063 911.313 566.858 911.688 567.696C911.846 568.047 911.998 568.417 912.149 568.77C912.235 568.972 912.618 570.128 913.146 570.995C913.158 571.015 913.211 570.976 913.223 570.995C913.516 571.454 913.796 572.034 914.22 571.916C914.443 571.854 914.506 571.216 914.681 570.842C915.266 569.591 915.692 567.474 915.755 567.236C915.834 566.939 915.905 566.612 915.985 566.315C917.364 561.241 918.954 556.271 920.819 551.354C923.871 543.303 927.583 535.217 932.941 528.413C935.28 525.444 938.021 522.662 941.304 520.74C944.78 518.707 948.904 517.599 952.89 517.211C955.752 516.933 958.669 517.078 961.483 517.671C970.33 519.536 977.877 525.519 983.12 532.71C985.01 535.302 986.885 538.113 987.57 541.303C988.581 546.008 987.325 550.992 985.575 555.344C983.339 560.903 980.088 566.047 976.521 570.842C976.239 571.221 975.965 571.618 975.677 571.993C975.168 572.655 974.809 573.048 974.296 573.681C974.049 573.986 973.705 574.306 973.529 574.602C973.353 574.897 973.35 575.137 973.836 575.446C973.947 575.516 974.035 575.301 974.143 575.215C974.16 575.202 974.202 575.232 974.22 575.215C974.253 575.176 974.262 575.103 974.296 575.062C974.418 574.919 974.566 574.934 974.68 574.832C975.415 574.17 976.156 573.483 976.905 572.837C979.947 570.213 983.053 567.73 986.265 565.318C992.983 560.272 1000.16 555.359 1008.06 552.351C1011.85 550.907 1016.26 549.759 1020.33 550.663C1030.08 552.828 1034.37 565.854 1036.37 574.218C1036.98 576.794 1037.45 579.345 1037.82 581.967C1037.87 582.295 1037.94 582.636 1037.98 582.965C1037.99 583.067 1038.01 583.682 1038.13 584.115C1038.14 584.144 1038.12 584.167 1038.13 584.192C1038.17 584.299 1038.14 584.46 1038.21 584.499C1038.37 584.582 1038.32 584.195 1038.44 584.039C1038.45 584.027 1038.51 584.052 1038.52 584.039C1038.58 584.075 1038.67 584.346 1038.67 584.269C1038.67 584.117 1038.6 583.963 1038.59 583.809C1038.81 583.303 1039.2 582.818 1039.21 582.811C1039.88 580.834 1040.59 578.923 1041.35 576.98C1041.61 576.328 1041.85 575.633 1042.12 574.985C1042.41 574.288 1042.67 573.606 1042.97 572.914C1043.28 572.186 1043.64 571.487 1043.96 570.765C1047.03 564.006 1050.63 556.964 1056.01 551.737C1058.39 549.422 1061.43 547.378 1064.83 547.057C1069.9 546.579 1074.64 549.801 1078.34 552.888C1082.35 556.248 1085.85 560.286 1089.08 564.397C1091.01 566.861 1092.85 569.399 1094.6 571.993C1095.26 572.964 1096.04 574.07 1096.67 575.062C1097.23 575.927 1097.53 576.51 1098.05 577.364C1099.24 579.291 1098.68 579.141 1100.51 577.517C1100.84 577.226 1101.1 576.964 1101.43 576.673C1102.23 575.965 1103.01 575.233 1103.81 574.525C1105.4 573.108 1107.05 571.722 1108.64 570.305C1110.24 568.888 1111.81 567.425 1113.4 566.008C1116.59 563.174 1119.8 560.403 1122.99 557.569C1127.77 553.317 1132.55 549.007 1137.34 544.755C1131.74 549.694 1126.13 554.625 1120.53 559.563C1117.34 562.385 1114.14 565.258 1110.94 568.08C1109.34 569.491 1107.71 570.889 1106.11 572.3C1104.51 573.711 1102.95 575.109 1101.35 576.52C1100.98 576.85 1100.58 577.186 1100.2 577.517C1098.64 578.893 1099.37 579.12 1098.21 577.21C1098 576.868 1097.8 576.553 1097.59 576.213C1097.33 575.791 1097.09 575.404 1096.83 574.985C1096.19 573.99 1095.49 572.814 1094.83 571.839C1093.98 570.567 1093.19 569.482 1092.3 568.233C1090.83 566.182 1089.29 564.127 1087.7 562.172C1084.92 558.775 1081.92 555.488 1078.57 552.658C1074.58 549.302 1069.32 545.819 1063.83 546.827C1059.93 547.543 1056.65 550.334 1054.09 553.195C1049.56 558.258 1046.32 564.393 1043.5 570.535C1042.06 573.686 1040.71 576.873 1039.51 580.126C1039.15 581.108 1038.85 582.126 1038.52 583.118C1038.4 581.821 1038.19 580.513 1037.98 579.282C1037.45 576.187 1036.79 573.088 1035.91 570.075C1034.67 565.881 1033.08 561.713 1030.69 558.029C1029.74 556.56 1028.64 555.111 1027.39 553.886C1020.92 547.568 1012.88 549.335 1005.29 552.658C995.005 557.166 985.378 564.468 976.751 571.993C977.975 570.392 979.167 568.762 980.281 567.082C984.046 561.405 987.576 555.079 988.721 548.285C989.949 540.997 987.23 536.006 982.736 530.331C977.452 523.658 970.216 518.255 961.79 516.444C958.853 515.812 955.805 515.629 952.813 515.907C948.637 516.294 944.263 517.477 940.614 519.59C930.78 525.281 924.73 537.73 920.589 547.824C918.429 553.087 916.649 558.474 915.064 563.937C914.622 565.462 914.156 567.002 913.76 568.54C913.708 568.413 913.661 568.286 913.607 568.157C913.093 566.938 912.582 565.736 911.995 564.551C910.427 561.382 908.632 558.301 906.471 555.497C901.498 549.044 894.618 544.288 886.216 545.676C883.978 546.046 881.796 546.756 879.694 547.594C872.346 550.526 865.717 555.238 859.592 560.177C857.762 561.653 855.971 563.134 854.221 564.704C853.6 565.262 852.988 565.82 852.38 566.392C850.747 562.367 848.516 558.443 845.935 555.037C841.253 548.858 834.807 543.535 826.754 543.144C823.868 543.004 820.958 543.46 818.16 544.142C811.103 545.861 804.415 549.177 798.212 552.888C796.413 553.964 794.653 555.088 792.918 556.264C792.433 556.593 791.938 556.924 791.46 557.262C791.381 557.034 791.311 556.804 791.23 556.571C790.836 555.44 790.481 554.324 790.079 553.195C788.869 549.802 787.599 546.435 786.319 543.067C782.707 533.568 778.994 523.967 774.043 515.063C772.362 512.039 770.346 508.094 767.061 506.546Z" fill="#ffffff" fill-rule="nonzero" opacity="1" stroke="none"/>
<g opacity="1">
<use fill="#ffffff" fill-rule="nonzero" stroke="none" xlink:href="#Fill"/>
<mask height="0.093756" id="StrokeMask" maskUnits="userSpaceOnUse" width="0.610048" x="463.249" y="480.098">
<rect fill="#000000" height="0.093756" stroke="none" width="0.610048" x="463.249" y="480.098"/>
<use fill="#ffffff" fill-rule="evenodd" stroke="none" xlink:href="#Fill"/>
</mask>
<use fill="none" mask="url(#StrokeMask)" stroke="#ffffff" stroke-linecap="butt" stroke-linejoin="round" stroke-width="2" xlink:href="#Fill"/>
</g>
<g opacity="1">
<use fill="#ffffff" fill-rule="nonzero" stroke="none" xlink:href="#Fill_2"/>
<mask height="405.78" id="StrokeMask_2" maskUnits="userSpaceOnUse" width="375.406" x="394.704" y="107.607">
<rect fill="#000000" height="405.78" stroke="none" width="375.406" x="394.704" y="107.607"/>
<use fill="#ffffff" fill-rule="evenodd" stroke="none" xlink:href="#Fill_2"/>
</mask>
<use fill="none" mask="url(#StrokeMask_2)" stroke="#ffffff" stroke-linecap="butt" stroke-linejoin="round" stroke-width="2" xlink:href="#Fill_2"/>
</g>
<g opacity="1">
<path d="M30.6844 654.106C32.6005 649.891 34.8997 644.462 37.5822 637.82C40.2646 631.177 43.0748 623.992 46.0127 616.264C48.9507 608.536 51.9525 600.616 55.0181 592.505C58.0838 584.394 60.9578 576.698 63.6403 569.417C66.3227 562.136 68.6539 555.621 70.6338 549.873C72.6137 544.125 74.0508 539.718 74.9449 536.653C66.8976 539.974 59.9998 545.019 54.2517 551.789C48.5036 558.559 44.1606 567.054 41.2226 577.273C38.2847 576.251 35.6023 574.431 33.1753 571.812C30.7483 569.193 29.1516 565.904 28.3852 561.944C29.6625 556.069 32.0576 550.704 35.5703 545.85C39.0831 540.996 43.5219 536.844 48.8868 533.395C54.2517 529.947 60.4469 527.296 67.4724 525.444C74.4978 523.592 82.0343 522.666 90.0816 522.666C100.3 522.666 109.689 524.167 118.247 527.168C126.806 530.17 134.151 534.353 140.282 539.718C146.413 545.083 151.203 551.534 154.652 559.07C158.101 566.607 159.825 574.973 159.825 584.17C159.825 596.689 157.526 608.632 152.928 620C148.329 631.369 142.102 641.396 134.246 650.082C126.391 658.768 117.289 665.698 106.943 670.871C96.5962 676.045 85.7386 678.631 74.3701 678.631C63.8958 678.631 54.9223 676.555 47.4498 672.404C39.9772 668.253 34.3888 662.153 30.6844 654.106ZM98.3206 532.246C91.9338 532.246 85.8663 533.14 80.1182 534.928C85.7386 536.972 90.401 539.112 94.1053 541.347C97.8096 543.582 100.364 545.339 101.769 546.616C100.748 548.021 99.2467 550.512 97.2668 554.089C95.2869 557.665 92.9876 562.008 90.369 567.118C87.7504 572.227 84.9722 577.816 82.0343 583.883C79.0963 589.951 76.2223 596.178 73.4121 602.564C66.1311 618.787 60.862 631.56 57.6048 640.885C54.3475 650.21 52.7189 656.661 52.7189 660.237C54.5072 660.876 56.6787 661.323 59.2334 661.578C61.7881 661.834 64.5344 661.962 67.4724 661.962C77.819 661.962 87.6227 659.567 96.8836 654.776C106.144 649.986 114.256 643.568 121.217 635.52C128.179 627.473 133.671 618.116 137.695 607.45C141.719 596.784 143.731 585.576 143.731 573.824C143.731 560.667 139.643 550.448 131.468 543.167C123.293 535.886 112.244 532.246 98.3206 532.246Z" fill="#ffffff" fill-rule="nonzero" opacity="1" stroke="none"/>
<path d="M187.8 670.775C180.519 670.009 174.707 666.816 170.364 661.195C166.021 655.575 163.849 648.422 163.849 639.736C163.849 634.626 164.616 629.325 166.148 623.832C167.681 618.34 169.853 613.007 172.663 607.834C175.473 602.66 178.794 597.774 182.626 593.176C186.458 588.577 190.61 584.618 195.081 581.296C202.106 576.059 208.684 573.441 214.816 573.441C218.903 575.612 222.927 580.147 226.887 587.045C227.525 587.045 228.1 587.013 228.611 586.949C229.122 586.885 229.697 586.853 230.336 586.853C237.106 586.853 240.491 592.856 240.491 604.864C240.491 612.911 239.181 620.543 236.563 627.76C233.944 634.977 230.304 641.524 225.641 647.4C220.979 653.276 215.422 658.225 208.972 662.249C202.521 666.273 195.464 669.115 187.8 670.775ZM197.571 610.42C195.4 613.358 193.356 616.552 191.44 620C189.524 623.449 187.863 626.93 186.458 630.443C185.053 633.956 183.968 637.341 183.201 640.598C182.435 643.855 182.051 646.761 182.051 649.316C182.051 652.381 182.562 655.319 183.584 658.13C184.606 660.94 185.756 662.536 187.033 662.92C192.781 661.642 198.05 659.247 202.84 655.734C207.631 652.222 211.782 647.847 215.295 642.61C218.807 637.372 221.554 631.433 223.534 624.79C225.514 618.148 226.504 611.059 226.504 603.522C226.504 600.201 226.312 597.583 225.929 595.667C225.546 593.751 224.907 592.09 224.013 590.685C218.392 592.346 213.379 595.028 208.972 598.732C204.565 602.437 200.765 606.333 197.571 610.42Z" fill="#ffffff" fill-rule="nonzero" opacity="1" stroke="none"/>
<path d="M210.984 721.167C210.984 720.401 211.239 719.698 211.75 719.06C212.261 718.421 212.836 717.782 213.475 717.144C215.007 718.549 216.317 719.634 217.402 720.401C218.488 721.167 219.51 721.806 220.468 722.317C221.426 722.828 222.416 723.147 223.438 723.275C224.46 723.403 225.673 723.466 227.078 723.466C233.721 723.466 240.044 721.71 246.047 718.197C252.051 714.685 257.703 709.607 263.004 702.965C268.305 696.323 273.127 688.211 277.47 678.631C281.813 669.051 285.645 658.193 288.966 646.059C287.434 647.591 285.549 649.284 283.314 651.136C281.079 652.988 278.748 654.745 276.321 656.405C273.894 658.066 271.499 659.599 269.135 661.004C266.772 662.409 264.76 663.431 263.1 664.069C260.928 663.686 258.917 662.76 257.064 661.291C255.212 659.822 253.584 658.002 252.178 655.83C250.773 653.659 249.688 651.2 248.921 648.454C248.155 645.707 247.772 642.801 247.772 639.736C247.772 634.754 248.698 629.644 250.55 624.407C252.402 619.17 254.861 614.029 257.927 608.983C260.992 603.938 264.601 599.179 268.752 594.709C272.904 590.238 277.311 586.342 281.973 583.021C286.635 579.7 291.361 577.049 296.152 575.069C300.942 573.089 305.636 572.099 310.234 572.099C314.705 572.099 318.058 573.025 320.294 574.878C322.529 576.73 324.158 579.891 325.18 584.362C323.774 583.596 321.986 583.212 319.815 583.212C316.749 583.212 313.204 584.426 309.181 586.853C305.157 589.28 301.069 592.441 296.918 596.337C292.767 600.233 288.647 604.704 284.56 609.75C280.472 614.795 276.863 619.937 273.734 625.174C270.604 630.411 268.05 635.52 266.07 640.502C264.09 645.484 263.1 649.954 263.1 653.914C263.1 654.808 263.164 655.351 263.292 655.543C263.419 655.734 263.611 655.83 263.866 655.83C265.016 655.83 266.581 655.192 268.561 653.914C270.541 652.637 272.776 651.008 275.267 649.028C277.758 647.048 280.344 644.749 283.027 642.131C285.709 639.512 288.264 636.862 290.691 634.179C296.184 628.048 301.197 621.182 305.732 613.582C310.266 605.981 313.875 598.605 316.557 591.451C320.006 591.707 323.072 592.282 325.754 593.176C328.437 594.07 330.289 595.028 331.311 596.05C326.968 606.013 323.487 614.38 320.868 621.15C318.25 627.92 315.983 633.924 314.067 639.161C310.618 648.358 307.392 656.756 304.391 664.357C301.389 671.957 298.323 678.982 295.194 685.433C292.064 691.884 288.679 697.887 285.039 703.444C281.398 709 277.279 714.333 272.68 719.443C270.509 721.87 268.05 724.009 265.303 725.862C262.557 727.714 259.747 729.278 256.873 730.556C253.999 731.833 251.189 732.791 248.442 733.43C245.696 734.069 243.173 734.388 240.874 734.388C237.808 734.388 234.679 734.037 231.485 733.334C228.292 732.632 225.322 731.673 222.576 730.46C219.829 729.247 217.434 727.841 215.391 726.245C213.347 724.648 211.878 722.956 210.984 721.167Z" fill="#ffffff" fill-rule="nonzero" opacity="1" stroke="none"/>
<path d="M402.013 587.811C401.885 590.238 401.47 592.761 400.767 595.379C400.065 597.998 399.203 600.361 398.181 602.469C397.159 604.576 396.073 606.333 394.923 607.738C393.774 609.143 392.688 609.845 391.666 609.845C390.261 609.718 389.431 608.76 389.175 606.971C389.175 606.588 389.335 605.981 389.654 605.151C389.974 604.321 390.325 603.395 390.708 602.373C391.091 601.351 391.443 600.329 391.762 599.307C392.081 598.285 392.241 597.391 392.241 596.625C392.241 594.836 391.826 593.336 390.995 592.122C390.165 590.909 389.048 590.302 387.642 590.302C382.533 590.302 378.637 593.495 375.955 599.882C373.272 606.269 371.931 615.657 371.931 628.048C371.931 629.325 371.995 630.092 372.123 630.347C374.805 630.219 377.2 630.123 379.308 630.06C381.415 629.996 383.491 629.964 385.535 629.964C385.663 630.219 385.726 630.73 385.726 631.497C385.726 632.646 385.471 633.477 384.96 633.987C382.022 634.626 379.691 635.169 377.966 635.616C376.242 636.063 374.933 636.478 374.039 636.862C373.144 637.245 372.602 637.66 372.41 638.107C372.218 638.554 372.123 639.161 372.123 639.927C372.123 640.949 372.154 641.971 372.218 642.993C372.282 644.015 372.314 645.292 372.314 646.825C372.314 657.555 369.408 666.177 363.596 672.691C357.784 679.206 349.705 682.974 339.358 683.996C337.57 683.868 335.718 683.357 333.802 682.463C331.886 681.569 330.065 680.419 328.341 679.014C326.617 677.609 325.116 676.045 323.838 674.32C322.561 672.596 321.667 670.839 321.156 669.051C321.156 664.197 322.178 659.567 324.222 655.16C326.265 650.753 329.044 646.857 332.556 643.472C336.069 640.087 340.22 637.341 345.011 635.233C349.801 633.125 355.006 631.88 360.626 631.497C360.626 628.303 360.307 625.174 359.668 622.108C359.03 619.042 358.359 616.072 357.656 613.198C356.954 610.324 356.283 607.514 355.645 604.768C355.006 602.022 354.687 599.307 354.687 596.625C354.687 593.176 355.389 589.759 356.794 586.374C358.199 582.989 360.051 579.859 362.351 576.985C364.65 574.111 367.332 571.652 370.398 569.609C373.464 567.565 376.657 566.16 379.978 565.393C381.383 565.776 383.267 566.894 385.631 568.746C387.994 570.599 390.325 572.674 392.624 574.973C394.923 577.273 396.967 579.604 398.755 581.967C400.544 584.33 401.629 586.278 402.013 587.811ZM338.783 675.182C341.849 673.905 344.755 672.053 347.501 669.626C350.248 667.199 352.643 664.452 354.687 661.387C356.73 658.321 358.359 655.064 359.572 651.615C360.786 648.166 361.393 644.781 361.393 641.46C358.838 641.843 356.028 643.025 352.962 645.005C349.896 646.985 347.022 649.348 344.34 652.094C341.657 654.84 339.422 657.682 337.634 660.62C335.846 663.558 334.951 666.113 334.951 668.285C334.951 671.095 336.229 673.394 338.783 675.182Z" fill="#ffffff" fill-rule="nonzero" opacity="1" stroke="none"/>
<path d="M579.055 560.795C579.055 567.82 577.298 574.526 573.786 580.913C570.273 587.3 565.547 592.888 559.607 597.679C553.667 602.469 546.706 606.269 538.722 609.079C530.739 611.889 522.276 613.294 513.335 613.294C510.141 613.294 507.618 612.879 505.766 612.049C503.914 611.219 501.838 609.59 499.539 607.163C493.152 621.086 487.947 633.892 483.923 645.579C479.9 657.267 476.738 668.604 474.439 679.589C469.585 678.44 465.625 676.428 462.56 673.554C459.494 670.68 456.684 667.071 454.129 662.728C455.406 660.301 456.939 657.108 458.727 653.148C460.516 649.188 462.687 644.302 465.242 638.49C467.797 632.678 470.767 625.717 474.152 617.605C477.537 609.494 481.528 600.01 486.127 589.152C488.171 584.17 489.959 579.827 491.492 576.123C493.025 572.419 494.366 568.938 495.515 565.681C496.665 562.423 497.719 559.198 498.677 556.005C499.635 552.811 500.625 549.299 501.647 545.466C495.643 547.383 490.119 549.618 485.073 552.173C480.027 554.727 475.844 557.41 472.523 560.22C471.373 559.454 470.192 558.304 468.978 556.771C467.765 555.238 466.647 553.546 465.625 551.694C464.603 549.841 463.709 547.957 462.943 546.041C462.176 544.125 461.729 542.401 461.602 540.868C465.306 538.313 469.904 535.95 475.397 533.779C480.89 531.607 486.765 529.723 493.025 528.126C499.284 526.53 505.766 525.284 512.472 524.39C519.178 523.496 525.597 523.049 531.729 523.049C539.009 523.049 545.588 523.975 551.464 525.827C557.34 527.679 562.321 530.266 566.409 533.587C570.496 536.908 573.626 540.868 575.797 545.466C577.969 550.065 579.055 555.174 579.055 560.795ZM544.949 537.802C540.095 537.802 535.114 538.186 530.004 538.952L532.303 542.401C531.026 544.061 529.429 546.552 527.513 549.873C525.597 553.194 523.49 557.186 521.19 561.849C518.891 566.511 516.368 571.716 513.622 577.464C510.876 583.212 507.97 589.28 504.904 595.667C514.867 595.667 523.937 594.741 532.112 592.888C540.287 591.036 547.28 588.482 553.092 585.224C558.904 581.967 563.439 578.167 566.696 573.824C569.953 569.481 571.582 564.818 571.582 559.837C571.582 553.194 569.347 547.862 564.876 543.838C560.405 539.814 553.763 537.802 544.949 537.802Z" fill="#ffffff" fill-rule="nonzero" opacity="1" stroke="none"/>
<path d="M632.321 586.661C633.598 586.661 635.099 586.885 636.823 587.332C638.548 587.779 640.112 588.354 641.518 589.056C642.923 589.759 644.104 590.493 645.062 591.26C646.02 592.026 646.499 592.729 646.499 593.367C643.945 598.732 641.581 604.129 639.41 609.558C637.238 614.987 635.386 620.192 633.853 625.174C632.321 630.155 631.139 634.818 630.309 639.161C629.478 643.504 629.063 647.272 629.063 650.465C629.063 654.042 629.446 657.012 630.213 659.375C630.979 661.738 632.257 663.431 634.045 664.452C632.512 665.474 630.532 666.305 628.105 666.943C625.678 667.582 623.507 667.901 621.591 667.901C614.693 667.901 611.244 663.175 611.244 653.723C611.244 646.442 613.671 636.478 618.525 623.832C615.97 629.708 613.032 635.233 609.711 640.406C606.39 645.579 603.005 650.146 599.556 654.106C596.107 658.066 592.627 661.291 589.114 663.782C585.601 666.273 582.376 667.774 579.438 668.285C574.712 668.029 570.88 665.762 567.942 661.483C565.004 657.203 563.535 651.743 563.535 645.1C563.535 637.947 565.068 630.411 568.133 622.491C571.199 614.572 575.127 607.227 579.917 600.457C584.707 593.687 589.912 588.034 595.533 583.5C601.153 578.965 606.582 576.57 611.819 576.315C613.096 576.698 614.533 577.464 616.13 578.614C617.727 579.764 619.26 581.105 620.729 582.638C622.197 584.17 623.443 585.735 624.465 587.332C625.487 588.929 626.061 590.302 626.189 591.451C621.08 592.218 615.811 594.709 610.382 598.924C604.953 603.139 600.035 608.217 595.628 614.156C591.222 620.096 587.613 626.451 584.803 633.221C581.993 639.991 580.587 646.314 580.587 652.19C580.587 654.617 581.482 656.15 583.27 656.788C586.974 656.022 591.253 652.86 596.107 647.304C600.961 641.747 606.837 633.157 613.735 621.533C615.012 619.234 616.449 616.679 618.046 613.869C619.643 611.059 621.271 608.121 622.932 605.055C624.593 601.99 626.221 598.892 627.818 595.762C629.415 592.633 630.915 589.599 632.321 586.661Z" fill="#ffffff" fill-rule="nonzero" opacity="1" stroke="none"/>
<path d="M656.654 656.214C656.654 653.659 656.942 650.082 657.516 645.484C658.091 640.885 658.858 635.903 659.816 630.539C660.774 625.174 661.859 619.681 663.073 614.061C664.286 608.44 665.532 603.395 666.809 598.924C668.47 592.92 671.056 588.29 674.569 585.033C678.082 581.775 682.457 580.147 687.694 580.147C690.504 580.147 693.283 580.594 696.029 581.488C698.775 582.382 700.404 583.532 700.915 584.937C697.21 588.003 694.241 591.803 692.005 596.337C689.77 600.872 687.981 605.726 686.64 610.899C685.299 616.072 684.277 621.374 683.575 626.802C682.872 632.231 682.138 637.309 681.371 642.035C685.586 636.414 689.578 631.337 693.346 626.802C697.115 622.268 700.468 618.659 703.406 615.977C707.365 612.272 710.048 609.175 711.453 606.684C712.858 604.193 714.072 601.479 715.093 598.541C715.86 596.241 716.786 593.559 717.872 590.493C718.957 587.428 720.778 584.618 723.332 582.063C723.843 581.935 724.929 581.871 726.59 581.871C727.867 581.871 729.24 581.935 730.709 582.063C732.178 582.191 733.551 582.446 734.829 582.829C736.106 583.212 737.192 583.66 738.086 584.17C738.98 584.681 739.491 585.32 739.619 586.086C737.575 588.769 735.659 592.952 733.871 598.637C732.082 604.321 730.486 610.548 729.08 617.318C727.675 624.088 726.398 630.826 725.248 637.532C724.099 644.238 723.077 649.891 722.183 654.489C722.694 654.234 723.843 653.212 725.632 651.423C727.42 649.635 729.432 647.4 731.667 644.717C733.903 642.035 736.266 639.097 738.756 635.903C741.247 632.71 743.451 629.581 745.367 626.515C747.794 622.811 749.806 619.33 751.402 616.072C752.999 612.815 754.404 609.334 755.618 605.63C756.831 601.926 757.949 597.806 758.971 593.272C759.993 588.737 761.078 583.34 762.228 577.081C762.994 576.059 764.687 575.197 767.305 574.494C769.924 573.792 772.319 573.441 774.491 573.441C776.407 573.441 777.812 573.76 778.706 574.399C778.067 581.552 776.886 587.939 775.161 593.559C773.437 599.179 771.106 604.64 768.168 609.941C765.23 615.242 761.589 620.543 757.246 625.844C752.903 631.145 747.794 636.925 741.918 643.184C739.491 645.739 736.84 648.549 733.966 651.615C731.092 654.681 728.282 657.523 725.536 660.141C722.789 662.76 720.235 664.963 717.872 666.752C715.509 668.54 713.688 669.434 712.411 669.434C709.473 669.434 707.046 668.285 705.13 665.985C703.214 663.686 702.256 660.748 702.256 657.172C702.256 653.467 702.416 650.242 702.735 647.496C703.054 644.749 703.597 641.843 704.364 638.778C705.13 635.967 705.737 633.604 706.184 631.688C706.631 629.772 707.014 628.112 707.333 626.707C707.653 625.301 707.876 624.088 708.004 623.066C708.132 622.044 708.26 621.022 708.387 620C707.365 620.511 706.024 621.565 704.364 623.162C702.703 624.759 700.979 626.611 699.19 628.718C697.402 630.826 695.614 632.966 693.825 635.137C692.037 637.309 690.568 639.161 689.418 640.694C686.992 644.015 684.884 646.953 683.096 649.507C681.307 652.062 679.615 654.489 678.018 656.788C676.421 659.088 674.857 661.419 673.324 663.782C671.791 666.145 670.003 668.668 667.959 671.35C663.871 670.073 660.965 668.157 659.241 665.602C657.516 663.047 656.654 659.918 656.654 656.214Z" fill="#ffffff" fill-rule="nonzero" opacity="1" stroke="none"/>
<path d="M841.36 587.811C841.233 590.238 840.817 592.761 840.115 595.379C839.412 597.998 838.55 600.361 837.528 602.469C836.506 604.576 835.421 606.333 834.271 607.738C833.121 609.143 832.036 609.845 831.014 609.845C829.609 609.718 828.778 608.76 828.523 606.971C828.523 606.588 828.683 605.981 829.002 605.151C829.321 604.321 829.673 603.395 830.056 602.373C830.439 601.351 830.79 600.329 831.11 599.307C831.429 598.285 831.589 597.391 831.589 596.625C831.589 594.836 831.173 593.336 830.343 592.122C829.513 590.909 828.395 590.302 826.99 590.302C821.881 590.302 817.985 593.495 815.302 599.882C812.62 606.269 811.279 615.657 811.279 628.048C811.279 629.325 811.342 630.092 811.47 630.347C814.153 630.219 816.548 630.123 818.655 630.06C820.763 629.996 822.839 629.964 824.882 629.964C825.01 630.219 825.074 630.73 825.074 631.497C825.074 632.646 824.819 633.477 824.308 633.987C821.37 634.626 819.039 635.169 817.314 635.616C815.59 636.063 814.28 636.478 813.386 636.862C812.492 637.245 811.949 637.66 811.758 638.107C811.566 638.554 811.47 639.161 811.47 639.927C811.47 640.949 811.502 641.971 811.566 642.993C811.63 644.015 811.662 645.292 811.662 646.825C811.662 657.555 808.756 666.177 802.944 672.691C797.132 679.206 789.052 682.974 778.706 683.996C776.918 683.868 775.065 683.357 773.149 682.463C771.233 681.569 769.413 680.419 767.689 679.014C765.964 677.609 764.463 676.045 763.186 674.32C761.909 672.596 761.014 670.839 760.504 669.051C760.504 664.197 761.525 659.567 763.569 655.16C765.613 650.753 768.391 646.857 771.904 643.472C775.417 640.087 779.568 637.341 784.358 635.233C789.148 633.125 794.354 631.88 799.974 631.497C799.974 628.303 799.655 625.174 799.016 622.108C798.377 619.042 797.707 616.072 797.004 613.198C796.302 610.324 795.631 607.514 794.992 604.768C794.354 602.022 794.034 599.307 794.034 596.625C794.034 593.176 794.737 589.759 796.142 586.374C797.547 582.989 799.399 579.859 801.698 576.985C803.998 574.111 806.68 571.652 809.746 569.609C812.811 567.565 816.005 566.16 819.326 565.393C820.731 565.776 822.615 566.894 824.978 568.746C827.341 570.599 829.673 572.674 831.972 574.973C834.271 577.273 836.315 579.604 838.103 581.967C839.891 584.33 840.977 586.278 841.36 587.811ZM778.131 675.182C781.197 673.905 784.103 672.053 786.849 669.626C789.595 667.199 791.99 664.452 794.034 661.387C796.078 658.321 797.707 655.064 798.92 651.615C800.134 648.166 800.74 644.781 800.74 641.46C798.186 641.843 795.375 643.025 792.31 645.005C789.244 646.985 786.37 649.348 783.688 652.094C781.005 654.84 778.77 657.682 776.981 660.62C775.193 663.558 774.299 666.113 774.299 668.285C774.299 671.095 775.576 673.394 778.131 675.182Z" fill="#ffffff" fill-rule="nonzero" opacity="1" stroke="none"/>
<path d="M907.655 587.811C907.528 590.238 907.112 592.761 906.41 595.379C905.707 597.998 904.845 600.361 903.823 602.469C902.801 604.576 901.716 606.333 900.566 607.738C899.416 609.143 898.331 609.845 897.309 609.845C895.904 609.718 895.073 608.76 894.818 606.971C894.818 606.588 894.977 605.981 895.297 605.151C895.616 604.321 895.967 603.395 896.351 602.373C896.734 601.351 897.085 600.329 897.404 599.307C897.724 598.285 897.883 597.391 897.883 596.625C897.883 594.836 897.468 593.336 896.638 592.122C895.808 590.909 894.69 590.302 893.285 590.302C888.176 590.302 884.28 593.495 881.597 599.882C878.915 606.269 877.573 615.657 877.573 628.048C877.573 629.325 877.637 630.092 877.765 630.347C880.448 630.219 882.843 630.123 884.95 630.06C887.058 629.996 889.134 629.964 891.177 629.964C891.305 630.219 891.369 630.73 891.369 631.497C891.369 632.646 891.113 633.477 890.603 633.987C887.665 634.626 885.333 635.169 883.609 635.616C881.885 636.063 880.575 636.478 879.681 636.862C878.787 637.245 878.244 637.66 878.052 638.107C877.861 638.554 877.765 639.161 877.765 639.927C877.765 640.949 877.797 641.971 877.861 642.993C877.925 644.015 877.957 645.292 877.957 646.825C877.957 657.555 875.051 666.177 869.239 672.691C863.427 679.206 855.347 682.974 845.001 683.996C843.213 683.868 841.36 683.357 839.444 682.463C837.528 681.569 835.708 680.419 833.984 679.014C832.259 677.609 830.758 676.045 829.481 674.32C828.204 672.596 827.309 670.839 826.798 669.051C826.798 664.197 827.82 659.567 829.864 655.16C831.908 650.753 834.686 646.857 838.199 643.472C841.712 640.087 845.863 637.341 850.653 635.233C855.443 633.125 860.648 631.88 866.269 631.497C866.269 628.303 865.95 625.174 865.311 622.108C864.672 619.042 864.002 616.072 863.299 613.198C862.596 610.324 861.926 607.514 861.287 604.768C860.648 602.022 860.329 599.307 860.329 596.625C860.329 593.176 861.032 589.759 862.437 586.374C863.842 582.989 865.694 579.859 867.993 576.985C870.293 574.111 872.975 571.652 876.041 569.609C879.106 567.565 882.3 566.16 885.621 565.393C887.026 565.776 888.91 566.894 891.273 568.746C893.636 570.599 895.967 572.674 898.267 574.973C900.566 577.273 902.61 579.604 904.398 581.967C906.186 584.33 907.272 586.278 907.655 587.811ZM844.426 675.182C847.492 673.905 850.398 672.053 853.144 669.626C855.89 667.199 858.285 664.452 860.329 661.387C862.373 658.321 864.002 655.064 865.215 651.615C866.429 648.166 867.035 644.781 867.035 641.46C864.481 641.843 861.67 643.025 858.605 645.005C855.539 646.985 852.665 649.348 849.983 652.094C847.3 654.84 845.065 657.682 843.276 660.62C841.488 663.558 840.594 666.113 840.594 668.285C840.594 671.095 841.871 673.394 844.426 675.182Z" fill="#ffffff" fill-rule="nonzero" opacity="1" stroke="none"/>
<path d="M908.038 651.232C908.038 650.082 908.134 648.645 908.326 646.921C908.518 645.196 908.869 642.897 909.38 640.023C909.891 637.149 910.561 633.668 911.392 629.581C912.222 625.493 913.276 620.575 914.553 614.827C914.808 613.55 915.383 611.506 916.277 608.696C917.172 605.886 918.353 602.916 919.822 599.786C921.291 596.657 923.079 593.623 925.187 590.685C927.295 587.747 929.817 585.576 932.755 584.17C934.927 584.681 937.801 585.991 941.378 588.098C944.954 590.206 948.02 593.112 950.575 596.816C947.637 600.137 945.178 603.459 943.198 606.78C941.218 610.101 939.43 613.55 937.833 617.126C936.236 620.703 934.767 624.407 933.426 628.239C932.085 632.071 930.584 636.095 928.923 640.31C927.518 643.887 926.241 647.559 925.091 651.328C923.942 655.096 923.303 658.385 923.175 661.195C923.175 663.494 923.143 665.123 923.079 666.081C923.016 667.039 922.664 667.518 922.026 667.518C921.515 667.518 920.493 667.199 918.96 666.56C917.427 665.921 915.862 664.931 914.266 663.59C912.669 662.249 911.232 660.557 909.955 658.513C908.677 656.469 908.038 654.042 908.038 651.232ZM944.635 568.076C944.635 567.309 944.826 566.16 945.21 564.627C944.571 563.988 944.028 563.03 943.581 561.753C943.134 560.475 942.91 559.326 942.91 558.304C942.91 557.154 943.07 555.59 943.389 553.61C943.709 551.63 944.124 549.49 944.635 547.191C945.146 544.892 945.784 542.497 946.551 540.006C947.317 537.515 948.084 535.248 948.85 533.204C950.383 533.204 952.267 533.619 954.502 534.449C956.738 535.28 959.005 536.365 961.304 537.707C963.604 539.048 965.711 540.517 967.627 542.113C969.543 543.71 971.012 545.211 972.034 546.616C970.629 548.021 968.777 549.969 966.478 552.46C964.178 554.951 961.943 557.569 959.772 560.316C957.6 563.062 955.62 565.649 953.832 568.076C952.044 570.503 950.894 572.227 950.383 573.249C948.85 572.994 947.509 572.323 946.359 571.237C945.21 570.151 944.635 569.098 944.635 568.076Z" fill="#ffffff" fill-rule="nonzero" opacity="1" stroke="none"/>
<path d="M975.675 670.775C968.394 670.009 962.582 666.816 958.239 661.195C953.896 655.575 951.724 648.422 951.724 639.736C951.724 634.626 952.491 629.325 954.023 623.832C955.556 618.34 957.728 613.007 960.538 607.834C963.348 602.66 966.669 597.774 970.501 593.176C974.333 588.577 978.485 584.618 982.956 581.296C989.981 576.059 996.559 573.441 1002.69 573.441C1006.78 575.612 1010.8 580.147 1014.76 587.045C1015.4 587.045 1015.98 587.013 1016.49 586.949C1017 586.885 1017.57 586.853 1018.21 586.853C1024.98 586.853 1028.37 592.856 1028.37 604.864C1028.37 612.911 1027.06 620.543 1024.44 627.76C1021.82 634.977 1018.18 641.524 1013.52 647.4C1008.85 653.276 1003.3 658.225 996.847 662.249C990.396 666.273 983.339 669.115 975.675 670.775ZM985.446 610.42C983.275 613.358 981.231 616.552 979.315 620C977.399 623.449 975.739 626.93 974.333 630.443C972.928 633.956 971.843 637.341 971.076 640.598C970.31 643.855 969.927 646.761 969.927 649.316C969.927 652.381 970.437 655.319 971.459 658.13C972.481 660.94 973.631 662.536 974.908 662.92C980.656 661.642 985.925 659.247 990.716 655.734C995.506 652.222 999.657 647.847 1003.17 642.61C1006.68 637.372 1009.43 631.433 1011.41 624.79C1013.39 618.148 1014.38 611.059 1014.38 603.522C1014.38 600.201 1014.19 597.583 1013.8 595.667C1013.42 593.751 1012.78 592.09 1011.89 590.685C1006.27 592.346 1001.25 595.028 996.847 598.732C992.44 602.437 988.64 606.333 985.446 610.42Z" fill="#ffffff" fill-rule="nonzero" opacity="1" stroke="none"/>
<path d="M1068.6 571.141C1071.92 572.163 1075.05 574.431 1077.99 577.943C1080.93 581.456 1083.1 585.32 1084.51 589.535C1083.1 592.984 1080.93 597.136 1077.99 601.99C1075.05 606.844 1072.12 611.793 1069.18 616.839C1066.24 621.884 1063.59 626.675 1061.23 631.209C1058.86 635.744 1057.49 639.48 1057.11 642.418C1059.15 640.247 1061.42 637.724 1063.91 634.85C1066.4 631.976 1068.83 629.102 1071.19 626.228C1073.55 623.353 1075.76 620.735 1077.8 618.372C1079.84 616.009 1081.44 614.252 1082.59 613.103C1085.02 610.548 1087.89 607.578 1091.21 604.193C1094.53 600.808 1098.01 597.615 1101.65 594.613C1105.29 591.611 1108.97 589.056 1112.67 586.949C1116.38 584.841 1119.76 583.787 1122.83 583.787C1126.15 583.787 1128.93 584.905 1131.16 587.14C1133.4 589.376 1135.15 591.707 1136.43 594.134C1136.43 594.389 1135.95 594.741 1134.99 595.188C1134.04 595.635 1132.66 596.88 1130.87 598.924C1129.09 601.223 1127.07 604.385 1124.84 608.408C1122.6 612.432 1120.43 616.775 1118.32 621.437C1116.22 626.1 1114.46 630.858 1113.05 635.712C1111.65 640.566 1110.95 644.973 1110.95 648.933C1110.95 652.126 1111.36 654.17 1112.19 655.064C1113.02 655.958 1114.2 656.405 1115.74 656.405C1117.14 656.405 1118.61 656.086 1120.14 655.447C1121.68 654.808 1122.89 654.489 1123.78 654.489C1124.3 654.745 1124.71 655.287 1125.03 656.118C1125.35 656.948 1125.51 657.682 1125.51 658.321C1124.49 659.215 1123.27 660.109 1121.87 661.004C1120.46 661.898 1118.99 662.728 1117.46 663.494C1115.93 664.261 1114.43 664.9 1112.96 665.41C1111.49 665.921 1110.18 666.177 1109.03 666.177C1105.33 666.177 1102.29 665.634 1099.93 664.548C1097.57 663.463 1095.71 662.025 1094.37 660.237C1093.03 658.449 1092.11 656.309 1091.59 653.818C1091.08 651.328 1090.83 648.677 1090.83 645.867C1090.83 644.334 1090.96 642.61 1091.21 640.694C1091.47 638.778 1091.98 636.51 1092.74 633.892C1093.51 631.273 1094.6 628.144 1096 624.503C1097.41 620.863 1099.2 616.488 1101.37 611.378C1101.11 611.378 1099.39 612.272 1096.19 614.061C1093 615.849 1089.55 618.595 1085.85 622.3C1079.84 628.048 1074.45 633.732 1069.66 639.352C1064.87 644.973 1059.98 651.232 1055 658.13C1052.19 662.089 1049.73 665.442 1047.62 668.189C1045.51 670.935 1043.69 672.755 1042.16 673.649C1039.48 672.117 1037.5 669.977 1036.22 667.231C1034.94 664.484 1033.99 661.642 1033.35 658.704C1033.35 656.277 1033.7 653.212 1034.4 649.507C1035.1 645.803 1036.06 641.684 1037.28 637.149C1038.49 632.614 1039.99 627.856 1041.78 622.874C1043.57 617.893 1045.55 612.911 1047.72 607.929C1052.57 596.689 1057.01 587.875 1061.03 581.488C1065.06 575.101 1067.58 571.652 1068.6 571.141Z" fill="#ffffff" fill-rule="nonzero" opacity="1" stroke="none"/>
</g>
</g>
</g>
</svg>
